<svg width="20" height="15" viewBox="0 0 20 15" fill="none" xmlns="http://www.w3.org/2000/svg">
<path d="M9.58332 9.0625L15.4167 6.25L9.58332 3.4375V9.0625ZM6.66666 11.25C6.20832 11.25 5.8161 11.1277 5.48999 10.8831C5.16388 10.6385 5.00055 10.3442 4.99999 10V2.5C4.99999 2.15625 5.16332 1.86208 5.48999 1.6175C5.81666 1.37292 6.20888 1.25042 6.66666 1.25H16.6667C17.125 1.25 17.5175 1.3725 17.8442 1.6175C18.1708 1.8625 18.3339 2.15667 18.3333 2.5V10C18.3333 10.3438 18.1703 10.6381 17.8442 10.8831C17.518 11.1281 17.1255 11.2504 16.6667 11.25H6.66666ZM6.66666 10H16.6667V2.5H6.66666V10ZM3.33332 13.75C2.87499 13.75 2.48277 13.6277 2.15666 13.3831C1.83055 13.1385 1.66721 12.8442 1.66666 12.5V3.75H3.33332V12.5H15V13.75H3.33332Z" fill="white"/>
</svg>
