<svg width="17" height="17" viewBox="0 0 17 17" fill="none" xmlns="http://www.w3.org/2000/svg">
<g clip-path="url(#clip0_469_2257)">
<path d="M8.49999 1.41666C12.4121 1.41666 15.5833 4.58787 15.5833 8.5C15.5833 12.4121 12.4121 15.5833 8.49999 15.5833C4.58787 15.5833 1.41666 12.4121 1.41666 8.5C1.41666 4.58787 4.58787 1.41666 8.49999 1.41666ZM8.49999 2.83333C6.9971 2.83333 5.55576 3.43035 4.49305 4.49306C3.43035 5.55577 2.83332 6.9971 2.83332 8.5C2.83332 10.0029 3.43035 11.4442 4.49305 12.5069C5.55576 13.5696 6.9971 14.1667 8.49999 14.1667C10.0029 14.1667 11.4442 13.5696 12.5069 12.5069C13.5696 11.4442 14.1667 10.0029 14.1667 8.5C14.1667 6.9971 13.5696 5.55577 12.5069 4.49306C11.4442 3.43035 10.0029 2.83333 8.49999 2.83333ZM8.49999 4.25C8.67348 4.25002 8.84094 4.31372 8.97059 4.429C9.10024 4.54429 9.18307 4.70315 9.20337 4.87546L9.20832 4.95833V8.20675L11.1258 10.1242C11.2528 10.2517 11.3266 10.4227 11.3321 10.6026C11.3376 10.7825 11.2744 10.9577 11.1554 11.0927C11.0363 11.2277 10.8704 11.3123 10.6912 11.3294C10.5121 11.3464 10.3332 11.2947 10.1908 11.1846L10.1242 11.1258L7.9992 9.00079C7.88911 8.89061 7.81841 8.74721 7.79803 8.59279L7.79166 8.5V4.95833C7.79166 4.77047 7.86628 4.5903 7.99912 4.45746C8.13196 4.32463 8.31213 4.25 8.49999 4.25Z" fill="white"/>
</g>
<defs>
<clipPath id="clip0_469_2257">
<rect width="17" height="17" fill="white"/>
</clipPath>
</defs>
</svg>
