<svg width="18" height="18" viewBox="0 0 18 18" fill="none" xmlns="http://www.w3.org/2000/svg">
<path d="M9.94499 2.24999C6.12749 2.14499 2.99999 5.21249 2.99999 8.99999H1.65749C1.31999 8.99999 1.15499 9.40499 1.39499 9.63749L3.48749 11.7375C3.63749 11.8875 3.86999 11.8875 4.01999 11.7375L6.11249 9.63749C6.16432 9.58462 6.19934 9.51759 6.21313 9.44485C6.22692 9.37211 6.21888 9.29691 6.19 9.22874C6.16113 9.16057 6.11272 9.10246 6.05088 9.06176C5.98904 9.02105 5.91653 8.99956 5.84249 8.99999H4.49999C4.49999 6.07499 6.88499 3.71249 9.82499 3.74999C12.615 3.78749 14.9625 6.13499 15 8.92499C15.0375 11.8575 12.675 14.25 9.74999 14.25C8.54249 14.25 7.42499 13.8375 6.53999 13.14C6.39634 13.0268 6.2161 12.9704 6.03357 12.9815C5.85103 12.9925 5.67893 13.0703 5.54999 13.2C5.23499 13.515 5.25749 14.0475 5.60999 14.3175C6.78834 15.2493 8.24772 15.7543 9.74999 15.75C13.5375 15.75 16.605 12.6225 16.5 8.80499C16.4025 5.28749 13.4625 2.34749 9.94499 2.24999ZM9.56249 5.99999C9.25499 5.99999 8.99999 6.25499 8.99999 6.56249V9.32249C8.99999 9.58499 9.14249 9.83249 9.36749 9.96749L11.7075 11.355C11.9775 11.5125 12.3225 11.4225 12.48 11.16C12.6375 10.89 12.5475 10.545 12.285 10.3875L10.125 9.10499V6.55499C10.125 6.25499 9.86999 5.99999 9.56249 5.99999Z" fill="white"/>
</svg>
