<svg width="25" height="24" viewBox="0 0 25 24" fill="none" xmlns="http://www.w3.org/2000/svg">
<path fill-rule="evenodd" clip-rule="evenodd" d="M24.3198 12.2728C24.3198 11.4219 24.2434 10.6037 24.1016 9.81824H12.7998V14.4601H19.258C18.9798 15.9601 18.1344 17.231 16.8634 18.0819V21.0928H20.7416C23.0107 19.0037 24.3198 15.9273 24.3198 12.2728Z" fill="#4285F4"/>
<path fill-rule="evenodd" clip-rule="evenodd" d="M12.7998 24C16.0398 24 18.7562 22.9255 20.7416 21.0928L16.8634 18.0818C15.7889 18.8018 14.4144 19.2273 12.7998 19.2273C9.67435 19.2273 7.0289 17.1164 6.08526 14.28H2.07617V17.3891C4.05072 21.3109 8.1089 24 12.7998 24Z" fill="#34A853"/>
<path fill-rule="evenodd" clip-rule="evenodd" d="M6.0855 14.2801C5.8455 13.5601 5.70914 12.791 5.70914 12.0001C5.70914 11.2091 5.8455 10.4401 6.0855 9.72005V6.61096H2.07641C1.26369 8.23096 0.800049 10.0637 0.800049 12.0001C0.800049 13.9364 1.26369 15.7691 2.07641 17.3891L6.0855 14.2801Z" fill="#FBBC05"/>
<path fill-rule="evenodd" clip-rule="evenodd" d="M12.7998 4.77273C14.5616 4.77273 16.1434 5.37818 17.3871 6.56727L20.8289 3.12545C18.7507 1.18909 16.0344 0 12.7998 0C8.1089 0 4.05072 2.68909 2.07617 6.61091L6.08526 9.72C7.0289 6.88364 9.67435 4.77273 12.7998 4.77273Z" fill="#EA4335"/>
</svg>
