<?xml version="1.0" encoding="UTF-8"?>
<svg version="1.1" viewBox="0 0 2048 529" width="1280" height="1280" xmlns="http://www.w3.org/2000/svg">
<path transform="translate(0)" d="m0 0h2048v529h-2048z" fill="#11182F"/>
<path transform="translate(173,133)" d="m0 0h19l23 3 12 4 16 8 12 9 8 7 11 14 19 3 13 5 11 7 10 9 12 12 7 11 5 10 2 7v11l-3 11-7 11-11 8-12 4h-13l-2-1-3 18-5 13-10 13-3 3 2 5 10 17 13 21 17 28 12 19 1 3-1 1h-35l-4-4-13-21-16-26-13-22-4-15-3-10-6-11-9-8-9-4-4-1h-18l-11 4-9 7-4 5 8-2h16l10 3 11 6 7 8 4 8 2 7v12l-3 10-6 10-9 7-11 5 44 1 1 1 1 29-2 1h-150l-6-3-5-6-1-4v-7l4-6 7-6-2-4-8-6-4 1-7 6-6 3-4 1h-11l-8-3-7-8-3-8v-10l5-9 8-6 4-2h11l4 1v-37l3-16 5-12 8-13 9-10 10-8 16-8 13-4 5-1h29l27 3h10l10-2 2-7 2-15 7-18-11-3-23-4-12-1-6-3-3-4-2-5v-7l6-9v-2l-12-1-8-6-3-6 1-9 6-7z" fill="#FEFEFD"/>
<path transform="translate(492,230)" d="m0 0 5 2 4 4 2-4 6-2 4 2 3 3h4l3-3 5 1 5 3 4-1 7-2 9 2 5 5h4l2-4 5 1-1 9 8 2 6 5 3 7 1 5 8 2 2 4-5 8v14l-3 7-5 6-1 9-4 5 1 5 5 5 2 12 5 6 4 7-1 5-6 10-5 2h-12l-5-3-3-3-5 2-6-1-6-5-1-6h-6l-3-2v-3l-2-1 1-8h-3l-3-4-3-1-1-3-2 1-2 4-1 5 2 2v7l-3 3h-2l-1 9-1 2-4-1-3-1-6 7-7 1-7-3-5-5-4-8-2-11-8-2v-5l4-3-1-5-2-4v-13l3-6-2-5-3-5 2-7 1-4-2-2 1-17-2-4 3-5-2-4 1-5 2-2 6-1-1-2v-7l4-2 4 3h2l2-6z" fill="#FDFDFC"/>
<path transform="translate(1517,269)" d="m0 0 20 1 4 2 11-2 12-1v2l6-1h12l6 4 6 7 2 6-2 10-1 7 2 7-2 6 1 5 2 3v12l-3 6 3 9-3 9v14l-3 9-4 5 1 5-3 3-4-1-2 7-1 1h-10l-5 5-9 2h-10l-10-2-3-1-5 4h-5l-3-4v-2l-11-1-5-3-1-6h-8l-4-5 1-8v-5l3-3 9-1 2-4 1-1h5l6 5h8l6 3 6-1 5-4h2l2-4 1-5-4-2h-8l-4 2-9 1-9-3-7 1-4-2-4-6-6-5-5-10-2-14-2-8v-8l2-7 2-3 1-9 5-9 10-6 8-5z" fill="#FEFEFD"/>
<path transform="translate(1295,231)" d="m0 0 8 1 3 3v2l7-4h14l5 3v2h2l1 3 4 1 2 3-1 7 2 6-2 6-6 4h-3l-1 7-4 1-4-3-3 3-7-1-2-4-5 2-2 1h-8l-7-1-2 1-1 4 4 6 11-1 7 3 5-2 1-2 7 1 1 4 4-3h2l1-2 2 3v6l-1 2 6 2 3 5-1 10-4 3-6 2-5 5-9 3v-1l-11-1v-3l-8 3-4 1-5-2-2 4 1 7 4 1 3 1 3-2 11-1 6 3 3-1 2-3 7 2 2 4 7-1 3 2 1 8 3 4v7l-3 7-9 4-3 6-5 2-4-2-2-3-7 5h-6l-6-5-4 1-5 3-4-1-3-2h-4l-4 4h-8l-5-3-1-2-4 1-1 2-7-2-5-6-2-5-2-13-6-4-2-4v-9l3-4-2-4-2-7 3-5-3-5v-4l4-4-3-1-1-7 2-5-2-9-1-5 3-7 4-4-1-9 2-5 6-4h2l3-7h4l2 3 5-2 3-1h12l8 3 5-4 6 2 4 2z" fill="#FDFDFC"/>
<path transform="translate(759,230)" d="m0 0 6 1 3 6 6 3 2 4-2 2 1 7 1 2-3 7v4l6 3h4l1 2 15-3 18 6 7 4 6 10 7 6 2 6v7l-1 2v6l1 2v10l-2 9-1 9-4 6h-2l-3 10-1 2-10 1-2 5-4 3h-10l-4-3h-7l-5 1-5-1-5-3-9 2-2 5-5-2-5-1-7 1-7-1-6-5-5-2-1-8-3-2v-3l2-1v-6l-1-4v-9l2-12-2-3-1-12 3-5-1-4-2-2v-7l2-3v-23l2-3-1-4-2-3 1-6 7-8 5-3 9 1 5 2z" fill="#FEFEFD"/>
<path transform="translate(1890,231)" d="m0 0h6l5 4v2l4 2 3 3 2 8-1 8-1 3 5 1 4 9 4 1 7-2 4-3 12 2 4-2 5 3 1 3 8 2 4 2 3 9 8 6 1 5-1 2v8l3 8v7l-4 5 1 4 2 3v8l-1 9 1 7-5 4-4 6-5 3h-8l-2-3h-15l-4-4-8-10v-7l1-2v-10l-1-12 1-8-9-9h-6l-1 4h-2v7l1 1v10l-3 11 2 5-1 7-1 3 2 4-1 5-5 6-7 3h-8l-7-3h-3l-3 3-7-1-5-6-5-3 1-7 1-14-2-4 1-6h2l-2-11 1-2v-10l-1-6 1-10 1-1v-6l-4-5 2-4 1-4-3-7 1-7 3-4-4-4 2-4 5-4 2-1 3-5 7-2 5 1z" fill="#FEFEFD"/>
<path transform="translate(1372,267)" d="m0 0h11l5 2 3 3 12 2 13-3 4-3h8l3 2h10l12 6 3 6 8 4 1 4v4l3 5v10l-1 5 3 7 1 8-3 7v13l-1 3 2 4-1 6-8 5-5 4-8-1-5-1-5 2h-8l-6-5-2-7-1-10 1-9-1-6-2-6 3-3-2-5-4-4v-6l-3-2-7 1-4 12 1 4-1 4 2 3 1 12-3 5-1 11-3 4-9 4-8 3h-12l-8-4-6-7 1-13-2-4v-9l3-5-3-12 1-8 1-7-3-6 1-5 4-2-2-6 1-6 6-4 4-4z" fill="#FEFEFD"/>
<path transform="translate(1066,267)" d="m0 0h7l7 1 3-1h7l4 4v3h7l5 3 3 5 5 1 5 5 1 10 5 5 2 12-3 8 2 9-1 6-5 5-1 9-6 4-2-1-1 5-3 3-10 3-7 3-4 1-1 2-9-1-4 3-10-2-7-5-5 1h-10l-2-2-1-5-6-1-7-7-4-5-1-9-6-2-1-5 2-2-1-5-1-4 2-8-1-9 4-6 1-3-1-7 5-4 6-2 2-5 7-2 7-5 3 1 6-3 9 1z" fill="#FEFEFD"/>
<path transform="translate(668,264)" d="m0 0 4 4 6 1 4-1 5 5 5 2 6 1 2 3 2 6 7 3 1 5-2 4 4 6 1 10-1 6-1 17-1 3 4 4 1 12-2 6-5 5-7 6h-15l-5-3-4 2h-4l-2-3v-3l-5 3-5-3h-24l-13-4-13-7-4-6v-13l4-10 5-5 10-6 13-4 1-2 7-2 10-1-4-4-9-2v2l-5 1-2 1-4-3-5-1h-7l-4-4-1-9-1-5 3-3 6 1 2-5 5-1h3l5-4 10 1 1-3 2-1h11l1 3 3-1z" fill="#FEFEFD"/>
<path transform="translate(955,232)" d="m0 0 9 2 9 8 2 7v11l6 4 3 4v2l7-1 9 9 4 3 1 8-2 5-8 6-4 4-11 1-2 3-1 6-3 6 1 4 10 4 6 8 7 3 6 16v5l-7 8-4 4-10 1-9-2-12-5-3-2-13 1-7-5-3-10-5-8-1-7v-11l-7-8-2-5 1-9-5-1-4-4v-2l-5-2-3-6 2-7 7-7 3-6 8-1v-9l6-6v-7h2l2-5 13-5z" fill="#FEFEFD"/>
<path transform="translate(1803,266)" d="m0 0 7 2 3 3h6l8 3 7 3 6 12v6l-7 2v2h-2v2l-6 2-7-1v-2h-9l-8-1-3 2 8 4 5 1 5-1 14 8 11 8 6 9 4 4 1 6-4 4-3 11-8 5-3 2-1 5-2 1h-6l-4-1-4 3-9 2-13-1-11-3-4-2-1 5h-5l-1-4-9-1-5-4-5-10v-6l9-6 4-3h6l3 2 6 1 1-3 5 1 12 1-1-2h-12l-6-3v-2l-4-2h-8l-4-6v-2l-5-1-4-5-3-4-2-7v-11l3-8 5-5 4-6 5-1 3 1 2-4 6-3 5-1h7l1 1h8z" fill="#FEFEFD"/>
<path transform="translate(1636,230)" d="m0 0 10 2 8 7 3 6 1 9-3 8 1 4 3 9-1 8-4 9 4 3-1 8-2 4 1 1v9l-2 3 3 2 1 3v11l-3 6 2 5 1 8-5 5-1 7-4 1h-4l-2 4h-7l-2-4-5 2-5 1-7-5-6-9-1-6 2-11-1-8-2-6 2-6v-7l-2-3 1-5 2-5-3-7v-8l3-5-1-3-3-2 1-4 3-5-1-4-2-9 1-7 5-7 3-7 4 2 5-1 3-2z" fill="#FEFEFD"/>
<path transform="translate(864,267)" d="m0 0 6 1 2 2 6-1 4-1 6 4 6 2 4 10 2 6-2 8-1 7 2 4v9l-2 3 1 9 1 6v7l-3 10 3 4-2 6-7 5v2l-5 1-2-2-5 1-4 3-11-2-5-5-6-8-1-2v-13l2-9-3-7 1-8 3-4-4-8v-13l3-5-1-4-1-6 5-5z" fill="#FEFEFD"/>
<path transform="translate(1693,267)" d="m0 0 7 1 3 2 10-1 5 3 5 2 4 10 2 3v10l-3 3 3 9v8l-3 5 1 6 2 5v9l-2 7v6l1 1v5l-5 4h-2l-1 5h-10l-4 2h-10l-8-5-5-6-2-3-1-9 2-8v-8l-2-5 1-8 1-2v-7l-2-4v-14l3-5-2-5-1-3 5-6z" fill="#FEFEFD"/>
<path transform="translate(1153,290)" d="m0 0 5 2 4 1 4-3 5 1 5 3h2l2-4 4 2 5 2 12 1 8 9 4 5v9l-7 9-3 4-5 1h-9l-4-3-5 4-6 1-3-2v-3l-5 2-11 1-7-2-7-8-2-1v-3l-2-1 1-5 1-1 2-12 8-3 2-5z" fill="#FEFEFD"/>
<path transform="translate(872,224)" d="m0 0h9l8 4 9 7 1 4-4 7-8 9-5 2-11 2h-6l-4-4-4-12-5-6 1-4 5-3 6-3z" fill="#FEFEFD"/>
<path transform="translate(1700,224)" d="m0 0h10l12 6 6 6v7l-10 11-4 2-10 2-2 1h-8l-5-10-4-9-3-3 2-5 9-4 4-3z" fill="#FEFEFD"/>
<path transform="translate(299,211)" d="m0 0h10l7 4 4 7v9l-4 6-6 4h-12l-6-4-4-6-1-6 3-8 6-5z" fill="#11182F"/>
<path transform="translate(1065,299)" d="m0 0 7 1 4 4 1 5 2 3v8l-1 4 1 12-7 2h-9l-4-9v-14l5-15z" fill="#11182F"/>
<path transform="translate(775,303)" d="m0 0h14l3 3 1 13-2 12-4 5-4 1-10-7-2-3v-14l3-9z" fill="#11182F"/>
<path transform="translate(1536,304)" d="m0 0h6l5 5 2 4-1 9-5 9-8-1-5-5-2-5v-10l4-5z" fill="#11182F"/>
<path transform="translate(522,269)" d="m0 0 7 1 9 3 5 7-2 5-5 6h-15l-2-4v-14z" fill="#11182F"/>
<path transform="translate(660,328)" d="m0 0 5 5-3 4-2 7-5-4-1-2-6-3-1-3 12-3z" fill="#11182F"/>
</svg>
