<svg width="177" height="23" viewBox="0 0 177 23" fill="none" xmlns="http://www.w3.org/2000/svg">
<path d="M1.98857 14.823C1.45708 14.823 1.10275 14.727 0.925584 14.5351C0.74842 14.3432 0.74842 14.1512 0.925584 13.9593C1.10275 13.7674 1.45708 13.6714 1.98857 13.6714C1.72282 13.6714 1.50875 13.5607 1.34635 13.3392C1.18395 13.103 1.07322 12.8151 1.01417 12.4756C0.969875 12.136 0.969875 11.7964 1.01417 11.4569C1.07322 11.1025 1.18395 10.8146 1.34635 10.5932C1.50875 10.357 1.72282 10.2389 1.98857 10.2389C1.61948 10.2389 1.33897 10.1208 1.14704 9.88454C0.955112 9.63355 0.859148 9.35304 0.859148 9.04301C0.859148 8.73297 0.955112 8.45984 1.14704 8.22362C1.33897 7.97264 1.61948 7.84715 1.98857 7.84715C1.4866 7.84715 1.14704 7.75119 0.969875 7.55926C0.807475 7.36733 0.807475 7.1754 0.969875 6.98348C1.14704 6.79155 1.4866 6.69559 1.98857 6.69559C1.47184 6.69559 1.12489 6.62177 0.94773 6.47413C0.78533 6.32649 0.78533 6.18624 0.94773 6.05337C1.12489 5.90573 1.47184 5.83191 1.98857 5.83191C1.47184 5.83191 1.12489 5.74333 0.94773 5.56617C0.78533 5.389 0.78533 5.21184 0.94773 5.03467C1.12489 4.85751 1.47184 4.76893 1.98857 4.76893C1.51613 4.76893 1.19871 4.6582 1.03631 4.43675C0.888675 4.21529 0.888675 3.99383 1.03631 3.77238C1.19871 3.55093 1.51613 3.4402 1.98857 3.4402C1.75235 3.10063 1.68591 2.81274 1.78926 2.57652C1.8926 2.34031 2.06977 2.2222 2.32075 2.2222C2.5865 2.20743 2.83748 2.36983 3.0737 2.7094C3.0737 2.13361 3.18442 1.75714 3.40588 1.57998C3.62733 1.38805 3.84879 1.38805 4.07024 1.57998C4.2917 1.75714 4.40243 2.13361 4.40243 2.7094C4.40243 2.28125 4.50577 1.96383 4.71246 1.75714C4.91915 1.55045 5.15537 1.4471 5.42112 1.4471C5.68686 1.4471 5.92308 1.55045 6.12977 1.75714C6.33647 1.96383 6.43981 2.28125 6.43981 2.7094C6.43981 2.35507 6.53578 2.09671 6.7277 1.9343C6.93439 1.75714 7.16323 1.66856 7.41421 1.66856C7.66519 1.66856 7.88665 1.75714 8.07858 1.9343C8.28527 2.09671 8.38861 2.35507 8.38861 2.7094C8.43291 2.36983 8.61007 2.13361 8.92011 2.00074C9.24491 1.86787 9.59923 1.83096 9.98309 1.89001C10.3669 1.9343 10.6917 2.0598 10.9575 2.26649C11.2232 2.47318 11.334 2.74631 11.2897 3.08587C11.5111 2.55438 11.74 2.23696 11.9762 2.13361C12.2124 2.03027 12.3748 2.10409 12.4634 2.35507C12.552 2.59129 12.4929 2.97514 12.2862 3.50664C12.4781 3.31471 12.7144 3.2778 12.9949 3.39591C13.2901 3.49925 13.5633 3.6838 13.8143 3.94954C14.08 4.21529 14.2572 4.4958 14.3458 4.79107C14.4491 5.08635 14.4048 5.32995 14.2129 5.52187C14.5967 5.43329 14.8994 5.45544 15.1208 5.58831C15.3571 5.70642 15.4973 5.8762 15.5416 6.09766C15.6007 6.30435 15.549 6.51104 15.3866 6.71773C15.239 6.92442 14.9732 7.07206 14.5894 7.16064C14.8551 7.23446 15.0175 7.43377 15.0766 7.75857C15.1356 8.06861 15.1135 8.41555 15.0101 8.79941C14.9068 9.1685 14.7444 9.47854 14.5229 9.72952C14.3162 9.96574 14.08 10.0469 13.8143 9.97312C14.0948 10.2979 14.1834 10.6153 14.08 10.9254C13.9914 11.2354 13.8216 11.4642 13.5707 11.6119C13.6592 11.8333 13.4821 12.0326 13.0392 12.2098C13.3197 12.2246 13.5707 12.3353 13.7921 12.542C14.0136 12.7487 14.176 12.9997 14.2793 13.2949C14.3827 13.5755 14.3974 13.856 14.3236 14.1365C14.2498 14.417 14.0652 14.6458 13.77 14.823C14.2129 14.572 14.5524 14.4687 14.7887 14.5129C15.0396 14.5425 15.143 14.6606 15.0987 14.8673C15.0544 15.0592 14.8403 15.2807 14.4565 15.5316C14.796 15.3545 15.0766 15.3397 15.298 15.4873C15.5195 15.6202 15.6228 15.8269 15.608 16.1074C15.608 16.3732 15.4309 16.6315 15.0766 16.8825C15.0766 17.1778 14.9658 17.414 14.7444 17.5912C14.5377 17.7683 14.2793 17.8864 13.9693 17.9455C13.6592 18.0045 13.3492 18.0045 13.0392 17.9455C12.7291 17.8864 12.4634 17.7683 12.2419 17.5912C12.0352 17.414 11.9319 17.1778 11.9319 16.8825C11.799 17.1778 11.5997 17.3549 11.334 17.414C11.0682 17.4583 10.8025 17.4214 10.5367 17.3033C10.271 17.1852 10.0717 17.008 9.9388 16.7718C9.80593 16.5208 9.80593 16.2551 9.9388 15.9745C9.65829 16.0927 9.39992 16.1074 9.16371 16.0188C8.94225 15.9155 8.77247 15.7531 8.65436 15.5316C8.53625 15.3102 8.49196 15.0813 8.52149 14.8451C8.56578 14.5941 8.70603 14.3875 8.94225 14.2251C8.64698 14.3579 8.34432 14.321 8.03429 14.1143C7.73901 13.9076 7.52494 13.6419 7.39207 13.3171C7.28872 13.3761 7.17061 13.4057 7.03774 13.4057C7.11156 13.6714 7.07465 13.9372 6.92701 14.2029C6.79414 14.4539 6.55054 14.5794 6.19621 14.5794C6.49148 14.5794 6.71294 14.6606 6.86058 14.823C7.00821 14.9854 7.08203 15.1699 7.08203 15.3766C7.08203 15.5833 7.00821 15.7679 6.86058 15.9303C6.71294 16.0779 6.49148 16.1517 6.19621 16.1517C6.41767 16.447 6.49148 16.7053 6.41767 16.9268C6.34385 17.1335 6.18883 17.2516 5.95261 17.2811C5.73116 17.2959 5.5097 17.163 5.28825 16.8825C5.28825 17.2368 5.17014 17.51 4.93392 17.7019C4.71246 17.8938 4.43195 17.9898 4.09239 17.9898C3.76759 18.0045 3.44279 17.9012 3.11799 17.6797C2.79319 17.4731 2.52006 17.1409 2.2986 16.6832C2.07715 16.2108 1.9738 15.5907 1.98857 14.823ZM6.19621 7.78071C6.49148 7.78071 6.69818 7.89144 6.81628 8.1129C6.94916 8.31959 7.00821 8.5189 6.99345 8.71082C7.22967 8.53366 7.54709 8.44508 7.9457 8.44508C8.34432 8.43031 8.65436 8.50413 8.87582 8.66653C8.86105 8.41555 8.94225 8.14242 9.11942 7.84715C9.29658 7.53711 9.49589 7.3378 9.71734 7.24922C9.52542 7.1754 9.47374 7.06468 9.56233 6.91704C9.28182 6.99086 9.05298 6.92442 8.87582 6.71773C8.71341 6.51104 8.69127 6.27482 8.80938 6.00907C8.63221 6.09766 8.41076 6.14195 8.14501 6.14195C7.89403 6.14195 7.65781 6.10504 7.43636 6.03122C7.2149 5.94264 7.07465 5.81715 7.01559 5.65475C7.04512 5.95002 6.95654 6.12718 6.74985 6.18624C6.76461 6.33388 6.7277 6.47413 6.63912 6.607C6.55054 6.73988 6.4029 6.80631 6.19621 6.80631C6.47672 6.80631 6.66127 6.88751 6.74985 7.04991C6.85319 7.21231 6.85319 7.37471 6.74985 7.53711C6.66127 7.69951 6.47672 7.78071 6.19621 7.78071ZM17.594 15.9081C17.4316 15.9081 17.2914 15.8121 17.1733 15.6202C17.0699 15.4135 16.9961 15.1552 16.9518 14.8451C16.9075 14.5351 16.8928 14.2251 16.9075 13.915C16.9371 13.605 16.9961 13.3466 17.0847 13.1399C17.1733 12.9185 17.3062 12.8077 17.4833 12.8077C17.4095 12.6749 17.4464 12.5125 17.594 12.3205C17.7417 12.1286 17.9484 11.9441 18.2141 11.7669C18.4946 11.575 18.7825 11.4126 19.0778 11.2797C19.3878 11.1468 19.661 11.0656 19.8972 11.0361C20.1334 11.0066 20.2884 11.0582 20.3622 11.1911C20.3327 10.9992 20.3991 10.8294 20.5615 10.6818C20.7387 10.5341 20.9602 10.4234 21.2259 10.3496C21.4917 10.2758 21.75 10.2462 22.001 10.261C22.2667 10.2758 22.4734 10.3496 22.6211 10.4825C22.562 10.2462 22.6358 9.98788 22.8425 9.70737C22.4734 9.69261 22.1339 9.63355 21.8238 9.53021C21.5138 9.4121 21.3662 9.25708 21.3809 9.06515C21.3809 9.28661 21.2923 9.44901 21.1152 9.55235C20.938 9.6557 20.7313 9.70737 20.4951 9.70737C20.2736 9.70737 20.0743 9.6557 19.8972 9.55235C19.72 9.44901 19.6314 9.28661 19.6314 9.06515C19.4986 9.28661 19.3288 9.4121 19.1221 9.44163C18.9154 9.47115 18.7087 9.43424 18.502 9.3309C18.3101 9.21279 18.1698 9.05777 18.0812 8.86584C17.9927 8.65915 18.0148 8.44508 18.1477 8.22362C17.8967 7.94311 17.8007 7.69213 17.8598 7.47068C17.9336 7.23446 18.0886 7.0942 18.3248 7.04991C18.5611 7.00562 18.8047 7.12373 19.0556 7.40424C18.8785 7.06468 18.8342 6.79893 18.9228 6.607C19.0114 6.41508 19.1516 6.34126 19.3435 6.38555C19.5502 6.41508 19.7422 6.607 19.9193 6.96133C19.8603 6.72511 19.8898 6.5258 20.0079 6.3634C20.1408 6.18624 20.3106 6.06813 20.5172 6.00907C20.7387 5.95002 20.9454 5.9574 21.1373 6.03122C21.344 6.10504 21.4769 6.26006 21.5359 6.49628C21.5212 6.201 21.6171 5.97955 21.8238 5.83191C22.0305 5.66951 22.2741 5.58093 22.5546 5.56617C22.8351 5.5514 23.0861 5.61046 23.3076 5.74333C23.529 5.8762 23.6471 6.09027 23.6619 6.38555C23.6914 5.98693 23.7948 5.72857 23.9719 5.61046C24.1491 5.49235 24.3115 5.50711 24.4591 5.65475C24.6068 5.80238 24.6658 6.07551 24.6363 6.47413C24.7101 6.20838 24.8504 6.0386 25.0571 5.96478C25.2638 5.8762 25.4778 5.86882 25.6993 5.94264C25.9355 6.00169 26.1201 6.12718 26.2529 6.31911C26.3858 6.49628 26.4153 6.71035 26.3415 6.96133C26.5039 6.75464 26.6958 6.65868 26.9173 6.67344C27.1388 6.67344 27.3381 6.74726 27.5152 6.89489C27.7072 7.02777 27.8253 7.20493 27.8696 7.42639C27.9286 7.64784 27.8769 7.86191 27.7145 8.06861C28.0689 7.90621 28.3568 7.90621 28.5782 8.06861C28.7997 8.23101 28.8956 8.44508 28.8661 8.71082C28.8366 8.97657 28.6446 9.19064 28.2903 9.35304C28.5856 9.33828 28.807 9.47115 28.9547 9.75166C29.1171 10.0174 29.2057 10.3274 29.2204 10.6818C29.25 11.0361 29.1983 11.3609 29.0654 11.6562C28.9325 11.9367 28.7185 12.0843 28.4232 12.0991C28.6594 12.0991 28.8366 12.195 28.9547 12.387C29.0728 12.5641 29.1318 12.7782 29.1318 13.0292C29.1318 13.2654 29.0728 13.4795 28.9547 13.6714C28.8366 13.8486 28.6594 13.9372 28.4232 13.9372C28.6889 13.9372 28.903 14.0405 29.0654 14.2472C29.2278 14.4391 29.3385 14.6901 29.3976 15.0001C29.4714 15.2954 29.4862 15.5981 29.4419 15.9081C29.3976 16.2181 29.3016 16.4839 29.154 16.7053C29.0064 16.912 28.807 17.0228 28.5561 17.0375C28.5413 17.2737 28.4232 17.4657 28.2017 17.6133C27.995 17.7609 27.7367 17.8569 27.4266 17.9012C27.1166 17.9455 26.7992 17.9381 26.4744 17.8791C26.1643 17.8348 25.906 17.7314 25.6993 17.569C25.4926 17.4214 25.3893 17.2295 25.3893 16.9932C25.3893 17.3623 25.3081 17.6133 25.1457 17.7462C24.9833 17.8791 24.8209 17.8791 24.6585 17.7462C24.4961 17.6281 24.4149 17.3771 24.4149 16.9932C24.2229 17.2295 24.0236 17.3549 23.8169 17.3697C23.6102 17.3845 23.4331 17.3254 23.2854 17.1925C23.1526 17.0597 23.0935 16.8973 23.1083 16.7053C22.8721 16.8973 22.4882 17.0301 21.9567 17.104C21.44 17.1778 20.8051 17.1335 20.0522 16.9711C19.2992 16.7939 18.4799 16.4396 17.594 15.9081ZM23.2633 14.823C23.1304 14.7492 23.0787 14.6163 23.1083 14.4244C23.1378 14.2324 23.2042 14.0257 23.3076 13.8043C23.4257 13.5828 23.5586 13.3983 23.7062 13.2507C23.5733 13.2211 23.4478 13.1547 23.3297 13.0513C23.2264 12.948 23.1599 12.8299 23.1304 12.697C23.0271 12.8446 22.8721 12.9701 22.6654 13.0735C22.4587 13.1621 22.2446 13.2137 22.0231 13.2285C21.8165 13.2433 21.6467 13.2064 21.5138 13.1178C21.5581 13.2506 21.5286 13.3688 21.4252 13.4721C21.6319 13.5459 21.8534 13.6788 22.0896 13.8707C22.3406 14.0627 22.5694 14.2546 22.7761 14.4465C22.9828 14.6384 23.1452 14.7639 23.2633 14.823ZM38.4345 17.1704C38.3164 17.4361 38.1245 17.5912 37.8587 17.6355C37.593 17.6797 37.3125 17.6502 37.0172 17.5469C36.7367 17.4288 36.5078 17.2664 36.3307 17.0597C36.2273 17.1925 36.0797 17.2811 35.8878 17.3254C35.7106 17.3549 35.5187 17.2885 35.312 17.1261C35.2529 17.5395 35.1348 17.8052 34.9577 17.9233C34.7805 18.0415 34.6181 18.0267 34.4705 17.8791C34.3228 17.7314 34.2785 17.4657 34.3376 17.0818C34.2933 17.318 34.1309 17.4952 33.8504 17.6133C33.5846 17.7314 33.2746 17.7831 32.9203 17.7683C32.5807 17.7683 32.2781 17.7019 32.0123 17.569C31.7613 17.4361 31.6358 17.2442 31.6358 16.9932C31.3258 17.0523 31.1043 17.008 30.9715 16.8604C30.8386 16.7127 30.8017 16.5429 30.8607 16.351C30.9198 16.1591 31.1043 16.0336 31.4144 15.9745C30.9862 15.9745 30.6983 15.9007 30.5507 15.7531C30.4031 15.6055 30.4031 15.4578 30.5507 15.3102C30.6983 15.1625 30.9862 15.0887 31.4144 15.0887C31.2077 15.0887 31.0453 14.9854 30.9272 14.7787C30.8091 14.5572 30.7279 14.2915 30.6836 13.9815C30.6393 13.6567 30.6393 13.3392 30.6836 13.0292C30.7279 12.7044 30.8091 12.4386 30.9272 12.232C31.0453 12.0105 31.2077 11.8998 31.4144 11.8998C31.1339 11.8998 30.9198 11.7595 30.7722 11.479C30.6245 11.1837 30.5507 10.8516 30.5507 10.4825C30.5507 10.1134 30.6245 9.78857 30.7722 9.50806C30.9198 9.21279 31.1339 9.06515 31.4144 9.06515C31.1043 9.06515 30.8755 8.96919 30.7279 8.77726C30.5802 8.57057 30.5064 8.34173 30.5064 8.09075C30.5064 7.83977 30.5802 7.61831 30.7279 7.42639C30.8755 7.2197 31.1043 7.11635 31.4144 7.11635C31.1782 7.11635 31.001 6.96871 30.8829 6.67344C30.7795 6.37817 30.7279 6.0386 30.7279 5.65475C30.7279 5.27089 30.7795 4.93133 30.8829 4.63605C31.001 4.34078 31.1782 4.19314 31.4144 4.19314C31.1782 4.19314 30.9936 4.10456 30.8607 3.9274C30.7426 3.75023 30.6836 3.54354 30.6836 3.30733C30.6836 3.07111 30.7426 2.86442 30.8607 2.68725C30.9936 2.51009 31.1782 2.42151 31.4144 2.42151C31.4144 2.18529 31.5325 2.00074 31.7687 1.86787C32.0049 1.735 32.2781 1.66856 32.5881 1.66856C32.9129 1.66856 33.1934 1.72761 33.4296 1.84572C33.6806 1.96383 33.8061 2.141 33.8061 2.37721C33.8061 2.0967 33.8947 1.89001 34.0718 1.75714C34.2638 1.6095 34.4778 1.53569 34.7141 1.53569C34.965 1.52092 35.1791 1.58736 35.3563 1.735C35.5482 1.86787 35.6442 2.08194 35.6442 2.37721C36.028 2.39198 36.279 2.49532 36.3971 2.68725C36.5152 2.87918 36.5005 3.06372 36.3528 3.24089C36.22 3.41805 35.969 3.49925 35.5999 3.48449C35.8804 3.48449 36.0871 3.57307 36.22 3.75023C36.3676 3.9274 36.4414 4.13409 36.4414 4.37031C36.4414 4.60653 36.3676 4.81322 36.22 4.99038C36.0871 5.16755 35.8804 5.25613 35.5999 5.25613C35.8509 5.25613 36.0354 5.3078 36.1535 5.41115C36.2864 5.49973 36.3602 5.60307 36.375 5.72118C36.626 5.72118 36.8622 5.80238 37.0836 5.96478C37.3051 6.11242 37.4011 6.30435 37.3715 6.54057C37.4453 6.34864 37.6299 6.201 37.9252 6.09766C38.2352 5.97955 38.5674 5.91311 38.9217 5.89835C39.2908 5.88358 39.6082 5.92787 39.874 6.03122C40.1545 6.13457 40.3021 6.29697 40.3169 6.51842C40.4497 6.34126 40.6638 6.30435 40.9591 6.40769C41.2691 6.49628 41.5718 6.66606 41.8671 6.91704C42.1771 7.15326 42.4133 7.40424 42.5757 7.66999C42.7381 7.93573 42.7529 8.15719 42.62 8.33435C42.9153 8.2753 43.1663 8.36388 43.373 8.6001C43.5944 8.83632 43.742 9.13159 43.8159 9.48592C43.9044 9.84024 43.9044 10.1724 43.8159 10.4825C43.7273 10.7777 43.5354 10.9623 43.2401 11.0361C43.4911 11.0361 43.6756 11.1468 43.7937 11.3683C43.9118 11.575 43.9709 11.8186 43.9709 12.0991C43.9709 12.3796 43.9044 12.6232 43.7716 12.8299C43.6387 13.0366 43.4468 13.1399 43.1958 13.1399C43.432 13.2137 43.5649 13.3909 43.5944 13.6714C43.6387 13.9519 43.6092 14.2546 43.5058 14.5794C43.4172 14.9042 43.277 15.1699 43.0851 15.3766C42.8931 15.5833 42.6864 15.6497 42.465 15.5759C42.6274 15.7679 42.6791 15.9672 42.62 16.1739C42.5757 16.3805 42.465 16.5651 42.2878 16.7275C42.1254 16.8751 41.9409 16.9637 41.7342 16.9932C41.5275 17.0228 41.3356 16.9489 41.1584 16.7718C41.2322 17.0818 41.1732 17.3328 40.9812 17.5247C40.8041 17.7167 40.5605 17.8421 40.2504 17.9012C39.9404 17.9603 39.6156 17.9307 39.276 17.8126C38.9512 17.6945 38.6707 17.4804 38.4345 17.1704ZM35.5777 11.3904C35.7992 11.3904 35.9468 11.4421 36.0206 11.5454C36.0945 11.6488 36.0945 11.7521 36.0206 11.8555C35.9468 11.9588 35.7992 12.0105 35.5777 12.0105C35.7254 11.9957 35.8361 12.0622 35.9099 12.2098C35.9985 12.3574 36.0428 12.5272 36.0428 12.7192C36.0576 12.8963 36.0206 13.0366 35.9321 13.1399C36.0945 13.1104 36.279 13.1473 36.4857 13.2507C36.7072 13.3392 36.9139 13.4647 37.1058 13.6271C37.3125 13.7895 37.4675 13.9445 37.5708 14.0922C37.5708 13.8855 37.6963 13.6567 37.9473 13.4057C38.1983 13.1547 38.4197 13.0292 38.6117 13.0292C38.464 12.9258 38.3755 12.7561 38.3459 12.5198C38.3312 12.2689 38.3681 12.04 38.4567 11.8333C38.56 11.6266 38.7076 11.5307 38.8996 11.5454C38.7667 11.5307 38.656 11.4273 38.5674 11.2354C38.4788 11.0435 38.4197 10.8368 38.3902 10.6153C38.3607 10.3791 38.3828 10.1946 38.4567 10.0617C38.309 10.1355 38.154 10.1281 37.9916 10.0396C37.8292 9.93621 37.7332 9.80334 37.7037 9.64094C37.5856 9.8181 37.4084 9.91406 37.1722 9.92883C36.9508 9.92883 36.781 9.84763 36.6629 9.68523C36.6481 9.80334 36.6038 9.88454 36.53 9.92883C36.4562 9.97312 36.3676 9.96574 36.2642 9.90668C36.3381 10.0691 36.3233 10.2389 36.22 10.416C36.1314 10.5932 35.9985 10.6892 35.8213 10.7039C36.0723 10.7777 36.1757 10.918 36.1314 11.1247C36.0871 11.3166 35.9025 11.4052 35.5777 11.3904ZM46.1662 2.90871C45.8562 2.83489 45.6421 2.70202 45.524 2.51009C45.4059 2.31816 45.369 2.13361 45.4133 1.95645C45.4723 1.76452 45.5978 1.61689 45.7897 1.51354C45.9817 1.4102 46.24 1.40281 46.5648 1.4914C46.5648 1.26994 46.6682 1.10016 46.8749 0.982049C47.0816 0.849176 47.3399 0.760594 47.65 0.716302C47.96 0.672012 48.27 0.672012 48.5801 0.716302C48.9049 0.760594 49.1706 0.849176 49.3773 0.982049C49.584 1.10016 49.6874 1.26994 49.6874 1.4914C49.9974 1.4471 50.241 1.51354 50.4182 1.6907C50.5953 1.8531 50.706 2.06718 50.7503 2.33292C50.7946 2.58391 50.7503 2.82012 50.6175 3.04158C50.4994 3.26303 50.2927 3.39591 49.9974 3.4402C50.0712 3.61736 50.0195 3.79453 49.8424 3.97169C49.68 4.13409 49.4585 4.27434 49.178 4.39245C48.9123 4.4958 48.6539 4.54747 48.4029 4.54747C48.1667 4.53271 48.0191 4.43675 47.96 4.25958C47.96 4.4958 47.8714 4.66558 47.6943 4.76893C47.5171 4.87227 47.3104 4.88704 47.0742 4.81322C46.838 4.72464 46.6313 4.53271 46.4541 4.23744C46.2769 3.9274 46.181 3.48449 46.1662 2.90871ZM46.0555 16.9489C45.8193 16.9489 45.6347 16.8382 45.5019 16.6168C45.369 16.3953 45.273 16.1222 45.214 15.7974C45.1697 15.4726 45.1697 15.1478 45.214 14.823C45.273 14.4982 45.369 14.2324 45.5019 14.0257C45.6347 13.8043 45.8193 13.6936 46.0555 13.6936C45.7602 13.6936 45.5388 13.5755 45.3911 13.3392C45.2435 13.0882 45.1697 12.8077 45.1697 12.4977C45.1697 12.1877 45.2435 11.9145 45.3911 11.6783C45.5388 11.4273 45.7602 11.3018 46.0555 11.3018C45.8045 11.3018 45.6052 11.1911 45.4576 10.9697C45.3099 10.7482 45.2066 10.4751 45.1475 10.1503C45.1032 9.82548 45.1032 9.50068 45.1475 9.17588C45.2066 8.85108 45.3099 8.58533 45.4576 8.37864C45.6052 8.15719 45.8045 8.04646 46.0555 8.04646C45.7897 8.04646 45.5904 7.97264 45.4576 7.82501C45.3395 7.6626 45.273 7.48544 45.2583 7.29351C45.2583 7.08682 45.3247 6.90966 45.4576 6.76202C45.5904 6.61439 45.7897 6.54057 46.0555 6.54057C46.0555 6.27482 46.1441 6.08289 46.3212 5.96478C46.5132 5.83191 46.7272 5.77286 46.9635 5.78762C47.2144 5.78762 47.4285 5.85406 47.6057 5.98693C47.7828 6.1198 47.8714 6.31911 47.8714 6.58486C47.8714 6.3634 47.9526 6.201 48.115 6.09766C48.2774 5.99431 48.4694 5.94264 48.6908 5.94264C48.9123 5.94264 49.1042 5.99431 49.2666 6.09766C49.4438 6.201 49.5323 6.3634 49.5323 6.58486C49.7538 6.40769 49.9457 6.35602 50.1081 6.42984C50.2853 6.50366 50.3812 6.62915 50.396 6.80631C50.4255 6.98348 50.3296 7.16064 50.1081 7.3378C50.3739 7.3378 50.5658 7.4633 50.6839 7.71428C50.8168 7.96526 50.8832 8.25315 50.8832 8.57795C50.8832 8.90275 50.8168 9.19064 50.6839 9.44163C50.5658 9.67784 50.3739 9.79595 50.1081 9.79595C50.3443 9.79595 50.5215 9.92144 50.6396 10.1724C50.7577 10.4234 50.8168 10.7113 50.8168 11.0361C50.8168 11.3609 50.7577 11.6488 50.6396 11.8998C50.5215 12.1508 50.3443 12.2762 50.1081 12.2762C50.2853 12.2762 50.4255 12.3944 50.5289 12.6306C50.647 12.852 50.7208 13.1399 50.7503 13.4943C50.7946 13.8338 50.7946 14.1734 50.7503 14.5129C50.7208 14.8525 50.647 15.1404 50.5289 15.3766C50.4255 15.5981 50.2853 15.7088 50.1081 15.7088C50.4329 15.7679 50.6322 15.9155 50.706 16.1517C50.7799 16.3732 50.743 16.5872 50.5953 16.7939C50.4477 16.9859 50.2115 17.0523 49.8867 16.9932C49.8867 17.3623 49.8128 17.6059 49.6652 17.724C49.5176 17.8569 49.3699 17.8569 49.2223 17.724C49.0747 17.6059 49.0008 17.3623 49.0008 16.9932C49.0008 17.3033 48.8532 17.5395 48.5579 17.7019C48.2774 17.8643 47.9379 17.9381 47.5392 17.9233C47.1554 17.9233 46.8158 17.8421 46.5205 17.6797C46.2253 17.5173 46.0703 17.2737 46.0555 16.9489ZM57.3994 16.7053C57.237 16.9416 57.0155 17.0597 56.735 17.0597C56.4545 17.0449 56.1813 16.9489 55.9156 16.7718C55.6646 16.5946 55.4801 16.3805 55.362 16.1296C55.2586 15.8638 55.2881 15.6055 55.4505 15.3545C55.2881 15.384 55.1331 15.2954 54.9855 15.0887C54.8526 14.882 54.7345 14.6163 54.6312 14.2915C54.5426 13.9667 54.4835 13.6345 54.454 13.2949C54.4245 12.9406 54.4319 12.6453 54.4761 12.4091C54.5352 12.1581 54.6459 12.0179 54.8083 11.9884C54.5573 12.0622 54.3285 12.0326 54.1218 11.8998C53.9299 11.7521 53.7675 11.5454 53.6346 11.2797C53.5165 11.014 53.4427 10.7408 53.4132 10.4603C53.3984 10.1798 53.4501 9.93621 53.5682 9.72952C53.3024 9.77381 53.0293 9.71475 52.7488 9.55235C52.4683 9.37519 52.3723 9.14635 52.4609 8.86584C52.1656 8.86584 51.9442 8.76988 51.7965 8.57795C51.6489 8.37126 51.5751 8.14242 51.5751 7.89144C51.5603 7.6257 51.6268 7.39686 51.7744 7.20493C51.9368 6.99824 52.1656 6.89489 52.4609 6.89489C52.3871 6.45198 52.4904 6.13457 52.7709 5.94264C53.0662 5.75071 53.3615 5.7138 53.6568 5.83191C53.6272 5.7138 53.6568 5.61784 53.7453 5.54402C53.8487 5.45544 53.9816 5.41853 54.144 5.43329C53.9963 5.27089 53.9225 5.07896 53.9225 4.85751C53.9225 4.63605 53.9963 4.44413 54.144 4.28173C54.2916 4.10456 54.5131 4.01598 54.8083 4.01598C54.6164 3.85358 54.5352 3.64689 54.5647 3.39591C54.609 3.14492 54.7197 2.91609 54.8969 2.7094C55.0741 2.48794 55.2808 2.3403 55.517 2.26649C55.7532 2.1779 55.9747 2.21481 56.1813 2.37721C56.1813 2.141 56.3068 1.96383 56.5578 1.84572C56.8236 1.72761 57.1188 1.66856 57.4436 1.66856C57.7832 1.66856 58.0785 1.72761 58.3295 1.84572C58.5952 1.96383 58.7281 2.141 58.7281 2.37721C59.23 2.33292 59.4884 2.40674 59.5032 2.59867C59.5179 2.7906 59.2743 2.90871 58.7724 2.953C59.0824 2.953 59.3039 3.07111 59.4367 3.30733C59.5844 3.54354 59.6508 3.81667 59.636 4.12671C59.636 4.43675 59.5548 4.68773 59.3924 4.87965C59.7025 4.87965 59.9904 5.01991 60.2561 5.30042C60.5219 5.58093 60.6252 5.8762 60.5662 6.18624C60.7286 6.00907 60.9426 5.92787 61.2084 5.94264C61.4889 5.9574 61.7251 6.04598 61.917 6.20838C62.1237 6.37078 62.2049 6.59962 62.1606 6.89489C62.4854 6.89489 62.729 7.00562 62.8914 7.22708C63.0538 7.44853 63.135 7.71428 63.135 8.02431C63.135 8.31959 63.0538 8.57795 62.8914 8.79941C62.729 9.02086 62.4854 9.13159 62.1606 9.13159C62.1754 9.38257 62.0573 9.58926 61.8063 9.75166C61.5701 9.8993 61.2748 9.99526 60.9205 10.0396C60.5662 10.0691 60.2561 10.0396 59.9904 9.95097C60.0642 10.1872 60.0716 10.4529 60.0125 10.7482C59.9535 11.0287 59.8427 11.2797 59.6803 11.5012C59.5327 11.7226 59.3408 11.8629 59.1046 11.9219C59.326 11.9514 59.481 12.0326 59.5696 12.1655C59.6582 12.2836 59.6877 12.4165 59.6582 12.5641C59.9387 12.5346 60.2266 12.5863 60.5219 12.7192C60.8171 12.852 61.046 13.0366 61.2084 13.2728C61.3855 13.4943 61.4224 13.7379 61.3191 14.0036C61.511 13.856 61.703 13.8117 61.8949 13.8707C62.0868 13.9298 62.2492 14.0479 62.3821 14.2251C62.515 14.3875 62.5814 14.572 62.5814 14.7787C62.5962 14.9706 62.515 15.1404 62.3378 15.288C62.574 15.2733 62.7512 15.3619 62.8693 15.5538C62.9874 15.7309 63.0465 15.9376 63.0465 16.1739C63.0465 16.3953 62.9874 16.5946 62.8693 16.7718C62.7512 16.9489 62.574 17.0375 62.3378 17.0375C62.3378 17.4804 62.0868 17.7609 61.5848 17.8791C61.0976 18.0119 60.4776 17.9824 59.7246 17.7905C58.9717 17.5985 58.1966 17.2368 57.3994 16.7053ZM68.5214 17.0375C68.4476 17.259 68.3073 17.4066 68.1006 17.4804C67.9087 17.5395 67.702 17.5321 67.4806 17.4583C67.2739 17.3845 67.1041 17.2664 66.9712 17.104C66.8531 16.9268 66.831 16.7275 66.9048 16.506C66.7719 16.6241 66.5947 16.6315 66.3733 16.5282C66.1518 16.4248 65.923 16.2624 65.6868 16.041C65.4653 15.8195 65.266 15.5759 65.0889 15.3102C64.9265 15.0297 64.8157 14.7713 64.7567 14.5351C64.7124 14.2989 64.7567 14.1291 64.8895 14.0257C64.4909 14.0848 64.203 14.0257 64.0259 13.8486C63.8635 13.6567 63.8339 13.45 63.9373 13.2285C64.0406 12.9923 64.2916 12.8446 64.6902 12.7856C64.4688 12.7856 64.299 12.7044 64.1809 12.542C64.0775 12.3796 64.0185 12.195 64.0037 11.9884C64.0037 11.7669 64.0554 11.575 64.1587 11.4126C64.2768 11.2354 64.4466 11.1468 64.6681 11.1468C64.4319 11.1025 64.2695 10.9697 64.1809 10.7482C64.1071 10.5268 64.0923 10.2905 64.1366 10.0396C64.1956 9.77381 64.299 9.55235 64.4466 9.37519C64.609 9.19803 64.8083 9.13159 65.0446 9.17588C64.7936 9.01348 64.6533 8.82155 64.6238 8.6001C64.5943 8.37864 64.6312 8.18671 64.7345 8.02431C64.8526 7.84715 65.015 7.73642 65.2217 7.69213C65.4432 7.63308 65.6794 7.68475 65.9304 7.84715C65.7975 7.65522 65.7606 7.47068 65.8197 7.29351C65.8787 7.10159 65.9894 6.95395 66.1518 6.8506C66.3142 6.73249 66.4914 6.68082 66.6833 6.69559C66.8753 6.71035 67.0377 6.81369 67.1705 7.00562C67.0672 6.69559 67.0746 6.46675 67.1927 6.31911C67.3108 6.15671 67.4584 6.09766 67.6356 6.14195C67.8275 6.18624 67.9825 6.3634 68.1006 6.67344C68.0563 6.43722 68.0933 6.25268 68.2114 6.1198C68.3295 5.98693 68.4771 5.90573 68.6543 5.8762C68.8462 5.83191 69.0234 5.85406 69.1858 5.94264C69.3482 6.03122 69.4515 6.18624 69.4958 6.40769C69.4958 6.18624 69.5991 6.02384 69.8058 5.92049C70.0273 5.80238 70.2783 5.74333 70.5588 5.74333C70.8393 5.74333 71.0829 5.80238 71.2896 5.92049C71.511 6.02384 71.6218 6.18624 71.6218 6.40769C71.6808 6.09766 71.8211 5.88358 72.0425 5.76547C72.2788 5.64737 72.5224 5.61784 72.7733 5.67689C73.0243 5.72118 73.2236 5.84667 73.3713 6.05337C73.5337 6.24529 73.5853 6.50366 73.5263 6.82846C73.6296 6.62177 73.7773 6.51104 73.9692 6.49628C74.1759 6.48151 74.3678 6.5258 74.545 6.62915C74.7369 6.71773 74.8698 6.8506 74.9436 7.02777C75.0322 7.20493 75.0174 7.39686 74.8993 7.60355C75.1355 7.44115 75.3717 7.41162 75.608 7.51497C75.8442 7.60355 76.0361 7.75857 76.1837 7.98002C76.3461 8.20148 76.4347 8.44508 76.4495 8.71082C76.4643 8.96181 76.3535 9.16112 76.1173 9.30875C76.3683 9.29399 76.575 9.38257 76.7374 9.5745C76.9145 9.76643 77.04 10.0174 77.1139 10.3274C77.2024 10.6227 77.2393 10.9328 77.2246 11.2576C77.2098 11.5676 77.136 11.8333 77.0031 12.0548C76.885 12.2762 76.7005 12.4017 76.4495 12.4313C76.7595 12.4903 76.9662 12.6453 77.0696 12.8963C77.1729 13.1325 77.1951 13.3983 77.136 13.6936C77.0917 13.9741 76.9662 14.2103 76.7595 14.4022C76.5676 14.5941 76.324 14.6606 76.0287 14.6015C76.2502 14.7492 76.3683 14.9263 76.3831 15.133C76.4126 15.3249 76.3683 15.5021 76.2502 15.6645C76.1321 15.8269 75.9771 15.9376 75.7851 15.9967C75.5932 16.041 75.3865 15.9893 75.165 15.8417C75.2979 16.0484 75.3348 16.2477 75.2758 16.4396C75.2167 16.6168 75.0986 16.757 74.9214 16.8604C74.759 16.9637 74.5745 17.008 74.3678 16.9932C74.1759 16.9785 74.0209 16.8677 73.9028 16.6611C73.9913 16.9416 73.947 17.163 73.7699 17.3254C73.5927 17.4878 73.386 17.5543 73.1498 17.5247C72.9284 17.4804 72.7733 17.3107 72.6848 17.0154C72.7438 17.3697 72.6774 17.6133 72.4854 17.7462C72.2935 17.8938 72.0794 17.9233 71.8432 17.8348C71.6218 17.7462 71.4889 17.5321 71.4446 17.1925C71.4741 17.8274 71.2527 18.1448 70.7802 18.1448C70.3078 18.1448 69.5549 17.7757 68.5214 17.0375ZM72.0204 13.5607C71.858 13.5459 71.7399 13.4278 71.6661 13.2064C71.607 12.9849 71.5775 12.7265 71.5775 12.4313C71.5922 12.1212 71.6365 11.8481 71.7104 11.6119C71.7842 11.3757 71.8949 11.2354 72.0425 11.1911C71.8949 11.1911 71.7473 11.0878 71.5996 10.8811C71.4668 10.6744 71.356 10.4382 71.2674 10.1724C71.1936 9.89192 71.1641 9.64832 71.1789 9.44163C71.046 9.55974 70.8836 9.60403 70.6917 9.5745C70.4997 9.54497 70.3521 9.44901 70.2487 9.28661C70.234 9.40472 70.1897 9.47854 70.1159 9.50806C70.0421 9.53759 69.9609 9.52283 69.8723 9.46377C69.9166 9.67046 69.9018 9.91406 69.828 10.1946C69.7689 10.4603 69.673 10.6965 69.5401 10.9032C69.4072 11.1099 69.2596 11.2133 69.0972 11.2133C69.2743 11.2576 69.3851 11.383 69.4294 11.5897C69.4884 11.7964 69.481 12.0031 69.4072 12.2098C69.3334 12.4017 69.2005 12.4977 69.0086 12.4977C69.171 12.4682 69.3113 12.5568 69.4294 12.7634C69.5622 12.9554 69.6508 13.1842 69.6951 13.45C69.7542 13.7157 69.7615 13.9445 69.7173 14.1365C69.9239 14.0184 70.234 13.9519 70.6474 13.9372C71.0608 13.9224 71.5184 13.7969 72.0204 13.5607ZM79.231 12.1212C78.9948 12.1212 78.8102 12.0474 78.6774 11.8998C78.5593 11.7374 78.5002 11.5528 78.5002 11.3461C78.5002 11.1394 78.5593 10.9549 78.6774 10.7925C78.8102 10.6301 78.9948 10.5489 79.231 10.5489C78.9357 10.416 78.7807 10.2241 78.7659 9.97312C78.7659 9.70737 78.8619 9.4933 79.0538 9.3309C79.2458 9.1685 79.4967 9.15373 79.8068 9.28661C79.8068 8.91752 79.9175 8.67392 80.139 8.55581C80.3604 8.4377 80.5745 8.4377 80.7812 8.55581C81.0026 8.67392 81.1134 8.91752 81.1134 9.28661C81.1134 9.02086 81.1946 8.82155 81.357 8.68868C81.5341 8.54104 81.7334 8.46722 81.9549 8.46722C82.1763 8.46722 82.3683 8.54104 82.5307 8.68868C82.7078 8.82155 82.7964 9.02086 82.7964 9.28661C82.7964 9.03563 82.8776 8.85108 83.04 8.73297C83.2172 8.6001 83.4239 8.53366 83.6601 8.53366C83.8963 8.53366 84.103 8.6001 84.2802 8.73297C84.4573 8.85108 84.5459 9.03563 84.5459 9.28661C84.6197 9.07992 84.7748 8.96181 85.011 8.93228C85.2472 8.90275 85.4982 8.93966 85.7639 9.04301C86.0297 9.13159 86.2364 9.27184 86.384 9.46377C86.5464 9.64094 86.5907 9.83286 86.5169 10.0396C86.7974 10.0396 87.0041 10.1577 87.1369 10.3939C87.2846 10.6153 87.3584 10.8737 87.3584 11.169C87.3584 11.4642 87.2846 11.73 87.1369 11.9662C87.0041 12.1877 86.7974 12.2984 86.5169 12.2984C86.5464 12.5937 86.4283 12.8299 86.1625 13.007C85.9116 13.1694 85.6089 13.2654 85.2546 13.2949C84.9002 13.3245 84.5828 13.2802 84.3023 13.1621C84.0218 13.0292 83.8668 12.8151 83.8373 12.5198C83.8373 12.8446 83.7487 13.0882 83.5715 13.2507C83.4091 13.4131 83.2172 13.4943 82.9957 13.4943C82.789 13.4943 82.5971 13.4131 82.4199 13.2507C82.2575 13.0882 82.1763 12.8446 82.1763 12.5198C82.1763 12.7708 82.0287 12.9554 81.7334 13.0735C81.4382 13.1916 81.0986 13.2433 80.7147 13.2285C80.3309 13.199 79.9913 13.0956 79.6961 12.9185C79.4008 12.7413 79.2458 12.4756 79.231 12.1212ZM89.965 14.7344C89.6107 14.7344 89.3375 14.6163 89.1456 14.3801C88.9684 14.1291 88.8799 13.8412 88.8799 13.5164C88.8799 13.1768 88.9684 12.8889 89.1456 12.6527C89.3375 12.4017 89.6107 12.2762 89.965 12.2762C89.6107 12.2762 89.3449 12.1803 89.1677 11.9884C89.0053 11.7964 88.9241 11.5824 88.9241 11.3461C88.9241 11.0952 89.0053 10.8811 89.1677 10.7039C89.3449 10.512 89.6107 10.416 89.965 10.416C89.4187 10.416 89.0496 10.3053 88.8577 10.0838C88.6805 9.86239 88.6805 9.64094 88.8577 9.41948C89.0496 9.19803 89.4187 9.0873 89.965 9.0873C89.5959 9.0873 89.3154 8.99872 89.1235 8.82155C88.9315 8.64439 88.8356 8.4377 88.8356 8.20148C88.8356 7.96526 88.9315 7.75857 89.1235 7.5814C89.3154 7.40424 89.5959 7.31566 89.965 7.31566C89.5516 7.31566 89.2416 7.18279 89.0349 6.91704C88.8429 6.65129 88.747 6.34864 88.747 6.00907C88.747 5.65475 88.8429 5.34471 89.0349 5.07896C89.2416 4.81322 89.5516 4.68035 89.965 4.68035C89.6845 4.59176 89.5073 4.42936 89.4335 4.19314C89.3744 3.94216 89.3818 3.69118 89.4556 3.4402C89.5442 3.17445 89.6845 2.96776 89.8764 2.82012C90.0831 2.65772 90.3267 2.62081 90.6072 2.7094C90.6072 2.25172 90.6884 1.94907 90.8508 1.80143C91.0132 1.6538 91.1756 1.6538 91.338 1.80143C91.5004 1.94907 91.5816 2.25172 91.5816 2.7094C91.5816 2.44365 91.6923 2.22958 91.9138 2.06718C92.1352 1.90478 92.4084 1.80143 92.7332 1.75714C93.0727 1.69809 93.4049 1.69809 93.7297 1.75714C94.0693 1.80143 94.3498 1.90478 94.5712 2.06718C94.8075 2.22958 94.9256 2.44365 94.9256 2.7094C94.9256 2.23696 95.0363 1.92692 95.2578 1.77929C95.494 1.61689 95.7302 1.61689 95.9664 1.77929C96.2026 1.92692 96.3207 2.23696 96.3207 2.7094C96.3207 2.31078 96.4167 2.0155 96.6086 1.82358C96.8006 1.63165 97.0146 1.53569 97.2509 1.53569C97.5018 1.53569 97.7159 1.63165 97.8931 1.82358C98.085 2.0155 98.181 2.31078 98.181 2.7094C98.181 2.44365 98.2843 2.22958 98.491 2.06718C98.6977 1.90478 98.9487 1.80143 99.2439 1.75714C99.554 1.69809 99.864 1.69809 100.174 1.75714C100.484 1.80143 100.742 1.90478 100.949 2.06718C101.156 2.22958 101.259 2.44365 101.259 2.7094C101.702 2.75369 101.99 2.84965 102.123 2.99729C102.27 3.13016 102.263 3.26303 102.101 3.39591C101.938 3.51402 101.636 3.55093 101.193 3.50664C101.577 3.55093 101.857 3.69118 102.034 3.9274C102.211 4.16362 102.285 4.42936 102.256 4.72464C102.226 5.00515 102.101 5.24875 101.879 5.45544C101.673 5.64736 101.377 5.72856 100.993 5.69904C100.993 6.17148 100.912 6.48889 100.75 6.65129C100.587 6.79893 100.425 6.79893 100.263 6.65129C100.1 6.48889 100.019 6.17148 100.019 5.69904C100.019 6.14195 99.9009 6.4446 99.6647 6.607C99.4433 6.75464 99.2144 6.75464 98.9782 6.607C98.742 6.4446 98.6239 6.14195 98.6239 5.69904C98.6239 5.92049 98.5131 6.09766 98.2917 6.23053C98.0702 6.3634 97.7971 6.4446 97.4723 6.47413C97.1623 6.50366 96.8522 6.49628 96.5422 6.45198C96.2322 6.39293 95.9959 6.2822 95.8335 6.1198C95.8631 6.29697 95.8483 6.46675 95.7892 6.62915C95.7302 6.79155 95.6342 6.9318 95.5014 7.04991C95.6785 7.16802 95.8188 7.31566 95.9221 7.49282C96.0402 7.65522 96.1067 7.83239 96.1214 8.02431C96.2395 7.84715 96.4167 7.72904 96.6529 7.66999C96.8891 7.59617 97.1327 7.57402 97.3837 7.60355C97.6347 7.63308 97.8488 7.72166 98.0259 7.8693C98.2031 8.00217 98.2917 8.18671 98.2917 8.42293C98.2917 8.09813 98.3729 7.85453 98.5353 7.69213C98.7125 7.52973 98.9118 7.44853 99.1332 7.44853C99.3547 7.44853 99.5466 7.52973 99.709 7.69213C99.8862 7.85453 99.9747 8.09813 99.9747 8.42293C100.152 7.96526 100.329 7.68475 100.506 7.5814C100.683 7.47806 100.802 7.52973 100.861 7.73642C100.934 7.92835 100.883 8.25315 100.706 8.71082C101.119 8.74035 101.414 8.88799 101.591 9.15373C101.783 9.41948 101.864 9.71475 101.835 10.0396C101.805 10.3644 101.68 10.6449 101.458 10.8811C101.237 11.1025 100.92 11.1985 100.506 11.169C100.506 11.3904 100.396 11.5676 100.174 11.7005C99.9674 11.8333 99.7016 11.9219 99.3768 11.9662C99.0668 12.0105 98.7494 12.0105 98.4246 11.9662C98.1145 11.9219 97.8488 11.8333 97.6273 11.7005C97.4206 11.5676 97.3173 11.3904 97.3173 11.169C97.3173 11.4642 97.2066 11.6783 96.9851 11.8112C96.7637 11.9441 96.5201 11.9957 96.2543 11.9662C96.0033 11.9367 95.8114 11.8186 95.6785 11.6119C95.6638 11.789 95.6047 11.9441 95.5014 12.0769C95.4128 12.2098 95.302 12.3132 95.1692 12.387C95.3316 12.5346 95.4054 12.7118 95.3906 12.9185C95.5678 12.9628 95.7228 13.0661 95.8557 13.2285C95.9886 13.3909 96.055 13.6124 96.055 13.8929C96.055 13.6271 96.1952 13.4278 96.4758 13.2949C96.771 13.1473 97.1032 13.0735 97.4723 13.0735C97.8414 13.0735 98.1662 13.1473 98.4467 13.2949C98.742 13.4278 98.8896 13.6271 98.8896 13.8929C98.8896 13.4352 99.0003 13.1325 99.2218 12.9849C99.4433 12.8373 99.6573 12.8373 99.864 12.9849C100.085 13.1325 100.196 13.4352 100.196 13.8929C100.403 13.5976 100.639 13.4647 100.905 13.4943C101.171 13.5238 101.363 13.6567 101.481 13.8929C101.614 14.1291 101.577 14.3948 101.37 14.6901C101.68 14.8082 101.872 15.0075 101.946 15.288C102.02 15.5685 102.005 15.8564 101.901 16.1517C101.798 16.4322 101.621 16.6537 101.37 16.8161C101.134 16.9785 100.861 17.0006 100.551 16.8825C100.551 17.2811 100.462 17.5764 100.285 17.7683C100.122 17.975 99.9305 18.0784 99.709 18.0784C99.4875 18.0784 99.2956 17.975 99.1332 17.7683C98.9708 17.5764 98.8896 17.2811 98.8896 16.8825C98.8896 17.2959 98.7641 17.5985 98.5131 17.7905C98.2769 17.9972 98.0038 18.1005 97.6938 18.1005C97.3837 18.1005 97.1032 17.9972 96.8522 17.7905C96.616 17.5985 96.4979 17.2959 96.4979 16.8825C96.4979 17.2516 96.4019 17.5247 96.21 17.7019C96.0181 17.8938 95.7892 17.9898 95.5235 17.9898C95.2725 17.9898 95.0511 17.8938 94.8591 17.7019C94.6672 17.5247 94.5712 17.2516 94.5712 16.8825C94.5712 17.3107 94.4458 17.6281 94.1948 17.8348C93.9586 18.0562 93.6854 18.1669 93.3754 18.1669C93.0654 18.1669 92.7848 18.0562 92.5339 17.8348C92.2976 17.6281 92.1795 17.3107 92.1795 16.8825C92.1795 17.2516 92.0614 17.51 91.8252 17.6576C91.6038 17.82 91.3454 17.8348 91.0501 17.7019C90.7548 17.5838 90.4965 17.2885 90.275 16.8161C90.0536 16.3289 89.9502 15.635 89.965 14.7344ZM104.359 17.1261C104.123 17.1113 103.946 17.0154 103.828 16.8382C103.71 16.6611 103.651 16.4544 103.651 16.2181C103.665 15.9819 103.732 15.7826 103.85 15.6202C103.983 15.4431 104.167 15.3545 104.404 15.3545C104.123 15.3545 103.909 15.2216 103.761 14.9559C103.614 14.6753 103.54 14.3579 103.54 14.0036C103.54 13.6345 103.614 13.3171 103.761 13.0513C103.909 12.7708 104.123 12.6306 104.404 12.6306C104.138 12.6306 103.939 12.4903 103.806 12.2098C103.688 11.9145 103.629 11.5824 103.629 11.2133C103.629 10.8442 103.688 10.5194 103.806 10.2389C103.939 9.94359 104.138 9.79595 104.404 9.79595C104.094 9.79595 103.857 9.70737 103.695 9.53021C103.547 9.35304 103.474 9.15373 103.474 8.93228C103.474 8.69606 103.547 8.48937 103.695 8.31221C103.857 8.13504 104.094 8.04646 104.404 8.04646C104.182 8.00217 104.027 7.89882 103.939 7.73642C103.85 7.57402 103.821 7.39686 103.85 7.20493C103.88 7.013 103.961 6.85799 104.094 6.73988C104.227 6.607 104.404 6.55533 104.625 6.58486C104.625 6.33388 104.736 6.13457 104.957 5.98693C105.179 5.83929 105.459 5.74333 105.799 5.69904C106.138 5.63998 106.471 5.63998 106.795 5.69904C107.135 5.74333 107.415 5.83929 107.637 5.98693C107.858 6.13457 107.969 6.33388 107.969 6.58486C108.146 6.39293 108.346 6.33388 108.567 6.40769C108.803 6.46675 108.995 6.58486 109.143 6.76202C109.29 6.5258 109.519 6.39293 109.829 6.3634C110.139 6.31911 110.39 6.46675 110.582 6.80631C110.538 6.55533 110.612 6.34864 110.804 6.18624C111.01 6.00907 111.261 5.89097 111.557 5.83191C111.852 5.77286 112.125 5.78762 112.376 5.8762C112.627 5.95002 112.775 6.11242 112.819 6.3634C112.922 6.18624 113.092 6.09766 113.328 6.09766C113.579 6.08289 113.845 6.13457 114.126 6.25267C114.421 6.37078 114.694 6.51842 114.945 6.69559C115.196 6.87275 115.38 7.06468 115.499 7.27137C115.631 7.47806 115.646 7.66999 115.543 7.84715C115.868 7.69951 116.126 7.68475 116.318 7.80286C116.51 7.92097 116.591 8.09813 116.562 8.33435C116.547 8.55581 116.377 8.74035 116.052 8.88799C116.318 8.85846 116.532 8.94704 116.694 9.15373C116.857 9.36043 116.953 9.61141 116.982 9.90668C117.027 10.1872 116.997 10.4529 116.894 10.7039C116.79 10.9401 116.606 11.073 116.34 11.1025C116.621 11.1025 116.827 11.2576 116.96 11.5676C117.108 11.8629 117.182 12.2098 117.182 12.6084C117.182 13.007 117.108 13.3614 116.96 13.6714C116.827 13.9667 116.621 14.1143 116.34 14.1143C116.65 14.1143 116.849 14.2177 116.938 14.4244C117.041 14.6311 117.041 14.8377 116.938 15.0444C116.849 15.2511 116.65 15.3545 116.34 15.3545C116.606 15.384 116.79 15.4947 116.894 15.6867C117.012 15.8638 117.056 16.0631 117.027 16.2846C116.997 16.4913 116.901 16.6684 116.739 16.8161C116.591 16.9637 116.384 17.0228 116.119 16.9932C116.119 17.2295 116.001 17.414 115.764 17.5469C115.543 17.665 115.277 17.724 114.967 17.724C114.672 17.724 114.406 17.665 114.17 17.5469C113.948 17.414 113.838 17.2295 113.838 16.9932C113.838 17.259 113.742 17.4583 113.55 17.5912C113.358 17.7388 113.129 17.8126 112.863 17.8126C112.612 17.8274 112.391 17.7683 112.199 17.6355C112.007 17.5173 111.904 17.318 111.889 17.0375C111.712 17.0375 111.579 16.8899 111.49 16.5946C111.416 16.2993 111.387 15.9598 111.402 15.5759C111.431 15.1921 111.498 14.8599 111.601 14.5794C111.704 14.2841 111.845 14.1365 112.022 14.1365C111.785 14.1365 111.601 14.0479 111.468 13.8707C111.335 13.6788 111.261 13.4573 111.247 13.2064C111.232 12.9554 111.269 12.7192 111.357 12.4977C111.461 12.2762 111.616 12.136 111.822 12.0769C111.63 12.0622 111.446 11.9588 111.269 11.7669C111.092 11.5602 110.929 11.3166 110.782 11.0361C110.649 10.7408 110.567 10.4529 110.538 10.1724C110.361 10.3201 110.147 10.4234 109.896 10.4825C109.66 10.5415 109.445 10.5415 109.254 10.4825C109.327 10.6596 109.349 10.8589 109.32 11.0804C109.29 11.3018 109.224 11.4938 109.121 11.6562C109.017 11.8186 108.877 11.8924 108.7 11.8776C108.966 11.8776 109.135 11.9514 109.209 12.0991C109.298 12.232 109.298 12.3722 109.209 12.5198C109.135 12.6675 108.966 12.7413 108.7 12.7413C108.921 12.7413 109.091 12.8816 109.209 13.1621C109.327 13.4426 109.386 13.7674 109.386 14.1365C109.386 14.5056 109.327 14.8377 109.209 15.133C109.091 15.4135 108.921 15.5538 108.7 15.5538C108.921 15.6867 109.039 15.8638 109.054 16.0853C109.069 16.292 109.017 16.4913 108.899 16.6832C108.781 16.8751 108.619 17.0154 108.412 17.104C108.205 17.1778 107.991 17.1409 107.77 16.9932C107.77 17.2147 107.659 17.3919 107.438 17.5247C107.216 17.6428 106.936 17.724 106.596 17.7683C106.271 17.8274 105.939 17.8348 105.6 17.7905C105.26 17.7609 104.972 17.6871 104.736 17.569C104.5 17.4657 104.374 17.318 104.359 17.1261ZM124.176 21.821C124.117 22.1162 123.984 22.3229 123.777 22.441C123.585 22.5591 123.379 22.596 123.157 22.5518C122.95 22.5075 122.773 22.3894 122.626 22.1974C122.493 22.0203 122.456 21.784 122.515 21.4888C122.412 21.6955 122.234 21.7988 121.983 21.7988C121.747 21.8136 121.504 21.7545 121.253 21.6216C121.002 21.5035 120.802 21.3411 120.655 21.1344C120.522 20.9425 120.507 20.7432 120.61 20.5365C120.418 20.6989 120.219 20.758 120.012 20.7137C119.806 20.6694 119.629 20.5587 119.481 20.3815C119.333 20.2191 119.252 20.0272 119.237 19.8057C119.237 19.599 119.333 19.4145 119.525 19.2521C119.333 19.0159 119.296 18.787 119.415 18.5656C119.533 18.3441 119.71 18.2039 119.946 18.1448C120.197 18.0857 120.418 18.1743 120.61 18.4105C120.61 18.1448 120.692 17.9455 120.854 17.8126C121.031 17.6945 121.223 17.6355 121.43 17.6355C121.651 17.6355 121.843 17.6945 122.006 17.8126C122.183 17.9455 122.271 18.1448 122.271 18.4105C122.36 18.2186 122.552 18.13 122.847 18.1448C123.157 18.1743 123.467 18.2629 123.777 18.4105C124.087 18.5729 124.294 18.7501 124.397 18.942C124.456 18.7649 124.589 18.5656 124.796 18.3441C125.003 18.1227 125.231 17.9233 125.482 17.7462C125.733 17.569 125.97 17.4509 126.191 17.3919C126.043 17.318 125.933 17.1999 125.859 17.0375C125.785 16.8604 125.755 16.698 125.77 16.5503C125.564 16.6241 125.349 16.6463 125.128 16.6168C124.907 16.5725 124.774 16.447 124.729 16.2403C124.744 16.4322 124.626 16.5872 124.375 16.7053C124.124 16.8087 123.829 16.8751 123.489 16.9047C123.164 16.9194 122.869 16.8899 122.603 16.8161C122.352 16.7423 122.22 16.6094 122.205 16.4175C122.116 16.6241 121.961 16.7423 121.74 16.7718C121.518 16.8013 121.289 16.7718 121.053 16.6832C120.817 16.5799 120.625 16.4396 120.477 16.2624C120.345 16.0853 120.315 15.8933 120.389 15.6867C120.227 15.7605 120.049 15.7162 119.857 15.5538C119.68 15.3914 119.503 15.1699 119.326 14.8894C119.164 14.5941 119.031 14.2915 118.927 13.9815C118.839 13.6567 118.794 13.3688 118.794 13.1178C118.809 12.8668 118.898 12.7044 119.06 12.6306C118.868 12.6158 118.713 12.4977 118.595 12.2762C118.492 12.04 118.433 11.7595 118.418 11.4347C118.403 11.0952 118.418 10.763 118.462 10.4382C118.521 10.0986 118.617 9.8181 118.75 9.59664C118.883 9.37519 119.053 9.27184 119.259 9.28661C119.053 9.15373 118.972 8.93966 119.016 8.64439C119.06 8.34911 119.178 8.05384 119.37 7.75857C119.562 7.4633 119.784 7.23446 120.035 7.07206C120.286 6.90966 120.514 6.89489 120.721 7.02777C120.677 6.82108 120.758 6.64391 120.965 6.49628C121.171 6.33388 121.437 6.20838 121.762 6.1198C122.101 6.03122 122.441 5.97955 122.781 5.96478C123.12 5.93526 123.408 5.96478 123.644 6.05337C123.895 6.12718 124.036 6.26744 124.065 6.47413C124.183 6.20838 124.338 6.05337 124.53 6.00907C124.722 5.96478 124.899 5.99431 125.062 6.09766C125.239 6.201 125.335 6.3634 125.349 6.58486C125.482 6.39293 125.682 6.25268 125.947 6.16409C126.228 6.07551 126.494 6.06813 126.745 6.14195C126.996 6.201 127.151 6.34864 127.21 6.58486C127.21 6.201 127.291 5.95002 127.453 5.83191C127.616 5.69904 127.778 5.69904 127.941 5.83191C128.103 5.95002 128.184 6.201 128.184 6.58486C128.199 6.34864 128.347 6.18624 128.627 6.09766C128.922 6.00908 129.254 5.97955 129.624 6.00907C129.993 6.0386 130.31 6.1198 130.576 6.25267C130.842 6.38555 130.967 6.57009 130.952 6.80631C131.203 6.80631 131.388 6.96133 131.506 7.27137C131.639 7.56664 131.705 7.91359 131.705 8.31221C131.705 8.69606 131.639 9.04301 131.506 9.35304C131.388 9.64832 131.203 9.79595 130.952 9.79595C131.174 9.79595 131.336 9.89192 131.44 10.0838C131.558 10.261 131.617 10.4751 131.617 10.7261C131.617 10.9623 131.558 11.1764 131.44 11.3683C131.336 11.5454 131.174 11.634 130.952 11.634C131.218 11.634 131.417 11.7817 131.55 12.0769C131.698 12.3722 131.772 12.7118 131.772 13.0956C131.772 13.4647 131.705 13.7969 131.572 14.0922C131.44 14.3875 131.24 14.5351 130.974 14.5351C131.225 14.5351 131.41 14.6532 131.528 14.8894C131.661 15.1109 131.727 15.3766 131.727 15.6867C131.727 15.9819 131.661 16.2477 131.528 16.4839C131.41 16.7053 131.225 16.8161 130.974 16.8161C131.211 16.8751 131.351 17.0671 131.395 17.3919C131.454 17.7019 131.44 18.0415 131.351 18.4105C131.277 18.7944 131.144 19.1192 130.952 19.385C130.775 19.6507 130.568 19.754 130.332 19.695C130.583 19.9017 130.694 20.1084 130.664 20.3151C130.635 20.5218 130.517 20.6546 130.31 20.7137C130.118 20.7875 129.897 20.7211 129.646 20.5144C129.838 20.7949 129.867 21.0385 129.734 21.2452C129.616 21.4666 129.432 21.5921 129.181 21.6216C128.944 21.6512 128.73 21.5257 128.538 21.2452C128.598 21.5109 128.465 21.7398 128.14 21.9317C127.83 22.1384 127.424 22.2786 126.922 22.3524C126.42 22.441 125.918 22.441 125.416 22.3524C124.914 22.2786 124.501 22.1015 124.176 21.821ZM126.678 11.7448C126.457 11.7448 126.324 11.6414 126.28 11.4347C126.25 11.2133 126.317 11.0582 126.479 10.9697C126.272 10.9697 126.066 10.8368 125.859 10.571C125.652 10.2905 125.541 10.0174 125.527 9.75166C125.335 9.91406 125.062 10.0469 124.707 10.1503C124.368 10.2389 124.087 10.2536 123.866 10.1946C123.969 10.3865 123.976 10.6375 123.888 10.9475C123.814 11.2428 123.681 11.42 123.489 11.479C123.637 11.4938 123.77 11.5897 123.888 11.7669C124.021 11.9441 124.117 12.1508 124.176 12.387C124.25 12.6232 124.272 12.8373 124.242 13.0292C124.434 12.8963 124.656 12.8816 124.907 12.9849C125.172 13.0735 125.386 13.2507 125.549 13.5164C125.49 13.3392 125.541 13.1621 125.704 12.9849C125.881 12.793 126.058 12.697 126.235 12.697C126.102 12.6084 126.036 12.4829 126.036 12.3205C126.036 12.1434 126.088 11.9957 126.191 11.8776C126.309 11.7595 126.472 11.7152 126.678 11.7448ZM134.075 16.8604C133.883 16.8604 133.728 16.757 133.61 16.5503C133.507 16.3436 133.433 16.0853 133.389 15.7752C133.344 15.4652 133.344 15.1552 133.389 14.8451C133.433 14.5351 133.507 14.2767 133.61 14.07C133.728 13.8633 133.883 13.76 134.075 13.76C133.795 13.76 133.581 13.6345 133.433 13.3835C133.3 13.1325 133.234 12.8446 133.234 12.5198C133.234 12.195 133.3 11.9072 133.433 11.6562C133.581 11.4052 133.795 11.2797 134.075 11.2797C133.78 11.2797 133.558 11.2133 133.411 11.0804C133.263 10.9328 133.189 10.763 133.189 10.571C133.189 10.3791 133.263 10.2167 133.411 10.0838C133.558 9.93621 133.78 9.86239 134.075 9.86239C133.78 9.86239 133.558 9.72952 133.411 9.46377C133.263 9.18326 133.189 8.85846 133.189 8.48937C133.189 8.12028 133.263 7.80286 133.411 7.53711C133.558 7.2566 133.78 7.11635 134.075 7.11635C133.765 7.11635 133.529 7.04253 133.367 6.89489C133.219 6.73249 133.145 6.55533 133.145 6.3634C133.145 6.17148 133.219 6.00169 133.367 5.85406C133.529 5.69166 133.765 5.61046 134.075 5.61046C133.854 5.61046 133.669 5.50711 133.522 5.30042C133.389 5.09373 133.3 4.83536 133.256 4.52533C133.211 4.21529 133.211 3.90525 133.256 3.59522C133.3 3.28518 133.389 3.02682 133.522 2.82012C133.669 2.61343 133.854 2.51009 134.075 2.51009C134.016 2.17052 134.046 1.9343 134.164 1.80143C134.297 1.66856 134.437 1.64641 134.585 1.735C134.747 1.82358 134.858 2.03765 134.917 2.37721C134.917 2.12623 135.02 1.92692 135.227 1.77929C135.448 1.63165 135.714 1.53569 136.024 1.4914C136.334 1.43234 136.644 1.43234 136.954 1.4914C137.279 1.53569 137.545 1.63165 137.751 1.77929C137.973 1.92692 138.083 2.12623 138.083 2.37721C138.364 2.37721 138.571 2.52485 138.704 2.82012C138.851 3.10063 138.925 3.43282 138.925 3.81667C138.94 4.18576 138.881 4.51795 138.748 4.81322C138.615 5.10849 138.408 5.25613 138.128 5.25613C138.364 5.25613 138.556 5.36686 138.704 5.58831C138.851 5.80977 138.947 6.08289 138.991 6.40769C139.036 6.73249 139.036 7.05729 138.991 7.3821C138.947 7.7069 138.851 7.98002 138.704 8.20148C138.556 8.42293 138.364 8.53366 138.128 8.53366C138.408 8.53366 138.615 8.61486 138.748 8.77726C138.895 8.93966 138.969 9.12421 138.969 9.3309C138.969 9.53759 138.895 9.72214 138.748 9.88454C138.615 10.0469 138.408 10.1281 138.128 10.1281C138.349 10.1281 138.519 10.2093 138.637 10.3717C138.755 10.5194 138.814 10.6892 138.814 10.8811C138.814 11.073 138.755 11.2502 138.637 11.4126C138.519 11.5602 138.349 11.634 138.128 11.634C138.408 11.634 138.615 11.789 138.748 12.0991C138.895 12.3944 138.969 12.7413 138.969 13.1399C138.969 13.5385 138.895 13.8929 138.748 14.2029C138.615 14.4982 138.408 14.6458 138.128 14.6458C138.423 14.6458 138.637 14.7344 138.77 14.9116C138.918 15.0887 138.991 15.2954 138.991 15.5316C138.991 15.7679 138.918 15.9745 138.77 16.1517C138.637 16.3289 138.423 16.4175 138.128 16.4175C138.32 16.6832 138.371 16.912 138.283 17.104C138.209 17.2959 138.069 17.3919 137.862 17.3919C137.67 17.3919 137.478 17.259 137.286 16.9932C137.286 17.4214 137.168 17.7019 136.932 17.8348C136.696 17.9824 136.459 17.9824 136.223 17.8348C136.002 17.7019 135.891 17.4214 135.891 16.9932C135.891 17.2295 135.795 17.4066 135.603 17.5247C135.426 17.6428 135.219 17.6945 134.983 17.6797C134.762 17.6797 134.555 17.6133 134.363 17.4804C134.186 17.3328 134.09 17.1261 134.075 16.8604ZM142.534 2.90871C142.224 2.83489 142.01 2.70202 141.891 2.51009C141.773 2.31816 141.736 2.13361 141.781 1.95645C141.84 1.76452 141.965 1.61689 142.157 1.51354C142.349 1.4102 142.608 1.40281 142.932 1.4914C142.932 1.26994 143.036 1.10016 143.242 0.982049C143.449 0.849176 143.707 0.760594 144.017 0.716302C144.327 0.672012 144.638 0.672012 144.948 0.716302C145.272 0.760594 145.538 0.849176 145.745 0.982049C145.951 1.10016 146.055 1.26994 146.055 1.4914C146.365 1.4471 146.608 1.51354 146.786 1.6907C146.963 1.8531 147.074 2.06718 147.118 2.33292C147.162 2.58391 147.118 2.82012 146.985 3.04158C146.867 3.26303 146.66 3.39591 146.365 3.4402C146.439 3.61736 146.387 3.79453 146.21 3.97169C146.047 4.13409 145.826 4.27434 145.545 4.39245C145.28 4.4958 145.021 4.54747 144.77 4.54747C144.534 4.53271 144.387 4.43675 144.327 4.25958C144.327 4.4958 144.239 4.66558 144.062 4.76893C143.885 4.87227 143.678 4.88704 143.442 4.81322C143.205 4.72464 142.999 4.53271 142.822 4.23744C142.644 3.9274 142.548 3.48449 142.534 2.90871ZM142.423 16.9489C142.187 16.9489 142.002 16.8382 141.869 16.6168C141.736 16.3953 141.64 16.1222 141.581 15.7974C141.537 15.4726 141.537 15.1478 141.581 14.823C141.64 14.4982 141.736 14.2324 141.869 14.0257C142.002 13.8043 142.187 13.6936 142.423 13.6936C142.128 13.6936 141.906 13.5755 141.759 13.3392C141.611 13.0882 141.537 12.8077 141.537 12.4977C141.537 12.1877 141.611 11.9145 141.759 11.6783C141.906 11.4273 142.128 11.3018 142.423 11.3018C142.172 11.3018 141.973 11.1911 141.825 10.9697C141.677 10.7482 141.574 10.4751 141.515 10.1503C141.471 9.82548 141.471 9.50068 141.515 9.17588C141.574 8.85108 141.677 8.58533 141.825 8.37864C141.973 8.15719 142.172 8.04646 142.423 8.04646C142.157 8.04646 141.958 7.97264 141.825 7.82501C141.707 7.6626 141.64 7.48544 141.626 7.29351C141.626 7.08682 141.692 6.90966 141.825 6.76202C141.958 6.61439 142.157 6.54057 142.423 6.54057C142.423 6.27482 142.512 6.08289 142.689 5.96478C142.881 5.83191 143.095 5.77286 143.331 5.78762C143.582 5.78762 143.796 5.85406 143.973 5.98693C144.15 6.1198 144.239 6.31911 144.239 6.58486C144.239 6.3634 144.32 6.201 144.483 6.09766C144.645 5.99431 144.837 5.94264 145.058 5.94264C145.28 5.94264 145.472 5.99431 145.634 6.09766C145.811 6.201 145.9 6.3634 145.9 6.58486C146.121 6.40769 146.313 6.35602 146.476 6.42984C146.653 6.50366 146.749 6.62915 146.763 6.80631C146.793 6.98348 146.697 7.16064 146.476 7.3378C146.741 7.3378 146.933 7.4633 147.051 7.71428C147.184 7.96526 147.251 8.25315 147.251 8.57795C147.251 8.90275 147.184 9.19064 147.051 9.44163C146.933 9.67784 146.741 9.79595 146.476 9.79595C146.712 9.79595 146.889 9.92144 147.007 10.1724C147.125 10.4234 147.184 10.7113 147.184 11.0361C147.184 11.3609 147.125 11.6488 147.007 11.8998C146.889 12.1508 146.712 12.2762 146.476 12.2762C146.653 12.2762 146.793 12.3944 146.896 12.6306C147.014 12.852 147.088 13.1399 147.118 13.4943C147.162 13.8338 147.162 14.1734 147.118 14.5129C147.088 14.8525 147.014 15.1404 146.896 15.3766C146.793 15.5981 146.653 15.7088 146.476 15.7088C146.8 15.7679 147 15.9155 147.074 16.1517C147.147 16.3732 147.11 16.5872 146.963 16.7939C146.815 16.9859 146.579 17.0523 146.254 16.9932C146.254 17.3623 146.18 17.6059 146.033 17.724C145.885 17.8569 145.737 17.8569 145.59 17.724C145.442 17.6059 145.368 17.3623 145.368 16.9932C145.368 17.3033 145.221 17.5395 144.925 17.7019C144.645 17.8643 144.305 17.9381 143.907 17.9233C143.523 17.9233 143.183 17.8421 142.888 17.6797C142.593 17.5173 142.438 17.2737 142.423 16.9489ZM153.241 17.0375C153.153 17.4361 153.02 17.6797 152.843 17.7683C152.666 17.8569 152.518 17.82 152.4 17.6576C152.297 17.4952 152.289 17.2221 152.378 16.8382C152.274 17.0597 152.105 17.1852 151.868 17.2147C151.632 17.2295 151.396 17.1852 151.16 17.0818C150.938 16.9637 150.761 16.8087 150.628 16.6168C150.51 16.4101 150.503 16.1886 150.606 15.9524C150.37 15.8786 150.215 15.7531 150.141 15.5759C150.082 15.384 150.082 15.1995 150.141 15.0223C150.215 14.8304 150.333 14.6827 150.495 14.5794C150.673 14.476 150.879 14.4687 151.115 14.5572C151.115 14.3358 151.204 14.1734 151.381 14.07C151.558 13.9519 151.758 13.8929 151.979 13.8929C152.215 13.8929 152.422 13.9519 152.599 14.07C152.776 14.1734 152.865 14.3358 152.865 14.5572C152.909 14.3358 153.064 14.1808 153.33 14.0922C153.596 14.0036 153.906 13.9741 154.26 14.0036C154.614 14.0331 154.932 14.1143 155.212 14.2472C155.227 14.1439 155.271 14.0627 155.345 14.0036C155.271 13.8707 155.271 13.7083 155.345 13.5164C155.183 13.6493 154.947 13.7157 154.637 13.7157C154.327 13.7157 154.009 13.664 153.684 13.5607C153.374 13.4573 153.123 13.3171 152.931 13.1399C152.739 12.9628 152.666 12.7708 152.71 12.5641C152.607 12.8594 152.459 13.0292 152.267 13.0735C152.075 13.1178 151.92 13.0661 151.802 12.9185C151.684 12.7561 151.676 12.5198 151.78 12.2098C151.617 12.3279 151.425 12.3279 151.204 12.2098C150.997 12.0769 150.783 11.885 150.562 11.634C150.355 11.383 150.178 11.1099 150.03 10.8146C149.883 10.5194 149.794 10.2462 149.765 9.99526C149.735 9.74428 149.801 9.56712 149.964 9.46377C149.801 9.37519 149.728 9.21279 149.742 8.97657C149.772 8.74035 149.853 8.49675 149.986 8.24577C150.134 7.99479 150.296 7.79548 150.473 7.64784C150.665 7.5002 150.842 7.47068 151.005 7.55926C150.857 7.30828 150.842 7.08682 150.96 6.89489C151.093 6.70297 151.27 6.59962 151.492 6.58486C151.713 6.55533 151.905 6.66606 152.068 6.91704C152.023 6.68082 152.09 6.47413 152.267 6.29697C152.459 6.1198 152.703 5.97955 152.998 5.8762C153.293 5.77286 153.596 5.72118 153.906 5.72118C154.231 5.70642 154.511 5.75071 154.747 5.85406C154.984 5.9574 155.124 6.12718 155.168 6.3634C155.198 6.08289 155.308 5.89097 155.5 5.78762C155.707 5.66951 155.921 5.62522 156.142 5.65475C156.379 5.68427 156.578 5.78024 156.74 5.94264C156.903 6.10504 156.962 6.31911 156.918 6.58486C157.006 6.30435 157.132 6.14195 157.294 6.09766C157.471 6.0386 157.619 6.07551 157.737 6.20838C157.855 6.34126 157.87 6.54795 157.781 6.82846C157.899 6.607 158.084 6.49628 158.335 6.49628C158.586 6.49628 158.829 6.56271 159.066 6.69559C159.317 6.82846 159.501 7.00562 159.619 7.22708C159.752 7.44853 159.752 7.66999 159.619 7.89144C159.959 7.99479 160.151 8.15719 160.195 8.37864C160.254 8.6001 160.195 8.79202 160.018 8.95443C159.856 9.10206 159.612 9.12421 159.287 9.02086C159.287 9.28661 159.184 9.48592 158.977 9.61879C158.77 9.7369 158.534 9.79595 158.268 9.79595C158.003 9.79595 157.766 9.7369 157.56 9.61879C157.368 9.48592 157.272 9.28661 157.272 9.02086C157.228 9.19803 157.095 9.31613 156.873 9.37519C156.667 9.43424 156.423 9.44901 156.142 9.41948C155.862 9.37519 155.596 9.30137 155.345 9.19803C155.36 9.38995 155.294 9.56712 155.146 9.72952C155.471 9.80334 155.773 9.93621 156.054 10.1281C156.334 10.3201 156.438 10.512 156.364 10.7039C156.408 10.4972 156.534 10.357 156.74 10.2832C156.947 10.2093 157.169 10.202 157.405 10.261C157.641 10.3053 157.84 10.4013 158.003 10.5489C158.165 10.6965 158.224 10.8737 158.18 11.0804C158.283 10.9623 158.446 10.9401 158.667 11.014C158.903 11.073 159.147 11.1985 159.398 11.3904C159.664 11.5676 159.907 11.7743 160.129 12.0105C160.35 12.232 160.512 12.4534 160.616 12.6749C160.719 12.8816 160.719 13.044 160.616 13.1621C160.926 13.1473 161.155 13.2137 161.302 13.3614C161.45 13.509 161.524 13.6788 161.524 13.8707C161.539 14.0627 161.472 14.2324 161.324 14.3801C161.192 14.5277 160.978 14.6089 160.682 14.6237C160.859 14.7565 160.926 14.9411 160.882 15.1773C160.852 15.4135 160.749 15.6424 160.572 15.8638C160.409 16.0853 160.217 16.2477 159.996 16.351C159.789 16.4396 159.59 16.4175 159.398 16.2846C159.516 16.5503 159.523 16.7792 159.42 16.9711C159.317 17.163 159.162 17.3033 158.955 17.3919C158.748 17.4804 158.534 17.4878 158.313 17.414C158.106 17.3402 157.951 17.1778 157.848 16.9268C157.877 17.1925 157.744 17.4066 157.449 17.569C157.169 17.7314 156.792 17.8274 156.32 17.8569C155.847 17.8864 155.338 17.8348 154.792 17.7019C154.26 17.569 153.743 17.3476 153.241 17.0375ZM163.27 17.1261C162.901 17.1113 162.657 16.9932 162.539 16.7718C162.421 16.5356 162.428 16.3141 162.561 16.1074C162.694 15.886 162.945 15.7826 163.314 15.7974C162.945 15.7974 162.694 15.7088 162.561 15.5316C162.443 15.3545 162.443 15.1773 162.561 15.0001C162.694 14.823 162.945 14.7344 163.314 14.7344C163.048 14.7344 162.842 14.6311 162.694 14.4244C162.561 14.2177 162.495 13.9815 162.495 13.7157C162.495 13.45 162.561 13.2137 162.694 13.007C162.842 12.8004 163.048 12.697 163.314 12.697C163.048 12.697 162.842 12.6306 162.694 12.4977C162.561 12.3501 162.495 12.1803 162.495 11.9884C162.495 11.7964 162.561 11.634 162.694 11.5012C162.842 11.3535 163.048 11.2797 163.314 11.2797C163.122 11.2797 162.967 11.169 162.849 10.9475C162.746 10.7261 162.672 10.4529 162.628 10.1281C162.598 9.80334 162.598 9.47853 162.628 9.15373C162.672 8.82893 162.746 8.55581 162.849 8.33435C162.967 8.1129 163.122 8.00217 163.314 8.00217C163.034 8.00217 162.82 7.91359 162.672 7.73642C162.524 7.55926 162.45 7.35257 162.45 7.11635C162.45 6.88013 162.524 6.67344 162.672 6.49628C162.82 6.31911 163.034 6.23053 163.314 6.23053C163.004 6.23053 162.768 6.12718 162.605 5.92049C162.458 5.7138 162.384 5.47758 162.384 5.21184C162.384 4.94609 162.458 4.70987 162.605 4.50318C162.768 4.29649 163.004 4.19314 163.314 4.19314C162.901 4.19314 162.62 4.0898 162.473 3.88311C162.34 3.67642 162.34 3.46973 162.473 3.26303C162.62 3.05634 162.901 2.953 163.314 2.953C163.255 2.73154 163.307 2.53961 163.469 2.37721C163.646 2.21481 163.86 2.0967 164.111 2.02289C164.377 1.9343 164.621 1.91954 164.842 1.9786C165.078 2.02289 165.233 2.15576 165.307 2.37721C165.307 2.11147 165.403 1.91216 165.595 1.77929C165.802 1.63165 166.038 1.55783 166.304 1.55783C166.57 1.55783 166.806 1.63165 167.012 1.77929C167.219 1.91216 167.322 2.11147 167.322 2.37721C167.544 2.34769 167.728 2.45841 167.876 2.7094C168.024 2.94562 168.12 3.23351 168.164 3.57307C168.223 3.91263 168.216 4.22267 168.142 4.50318C168.083 4.78369 167.943 4.93871 167.721 4.96824C168.075 4.90918 168.349 5.02729 168.54 5.32256C168.747 5.60307 168.858 5.92049 168.873 6.27482C169.094 6.21577 169.308 6.21577 169.515 6.27482C169.736 6.31911 169.884 6.45937 169.958 6.69559C169.928 6.45937 170.017 6.26744 170.224 6.1198C170.43 5.97217 170.674 5.88358 170.954 5.85406C171.25 5.80977 171.508 5.83191 171.729 5.92049C171.966 6.00907 172.106 6.16409 172.15 6.38555C172.239 6.03122 172.386 5.82453 172.593 5.76547C172.815 5.69166 172.999 5.73595 173.147 5.89835C173.309 6.06075 173.346 6.31911 173.257 6.67344C173.435 6.49628 173.641 6.42984 173.878 6.47413C174.129 6.51842 174.357 6.63653 174.564 6.82846C174.771 7.00562 174.904 7.21231 174.963 7.44853C175.036 7.68475 174.992 7.89882 174.83 8.09075C175.125 8.00217 175.369 8.02431 175.561 8.15719C175.767 8.29006 175.908 8.48199 175.981 8.73297C176.07 8.98395 176.07 9.22755 175.981 9.46377C175.908 9.68523 175.723 9.84763 175.428 9.95097C175.708 9.93621 175.922 10.0765 176.07 10.3717C176.218 10.6522 176.291 10.9844 176.291 11.3683C176.306 11.7374 176.247 12.0696 176.114 12.3648C175.981 12.6453 175.775 12.7856 175.494 12.7856C175.745 12.7856 175.93 12.9185 176.048 13.1842C176.166 13.4352 176.225 13.7305 176.225 14.07C176.225 14.4096 176.166 14.7123 176.048 14.978C175.93 15.229 175.745 15.3545 175.494 15.3545C175.863 15.3545 176.107 15.4578 176.225 15.6645C176.358 15.8712 176.358 16.0779 176.225 16.2846C176.107 16.4913 175.863 16.5946 175.494 16.5946C175.553 16.9047 175.472 17.163 175.251 17.3697C175.044 17.5616 174.785 17.6797 174.475 17.724C174.165 17.7831 173.878 17.7536 173.612 17.6355C173.361 17.5173 173.206 17.3033 173.147 16.9932C173.073 17.2442 172.911 17.3992 172.66 17.4583C172.409 17.5026 172.143 17.4804 171.862 17.3919C171.597 17.3033 171.375 17.1704 171.198 16.9932C171.036 16.8013 170.991 16.5799 171.065 16.3289C170.814 16.3289 170.622 16.2329 170.489 16.041C170.371 15.8343 170.312 15.5981 170.312 15.3323C170.312 15.0666 170.371 14.8304 170.489 14.6237C170.622 14.417 170.814 14.3136 171.065 14.3136C170.873 14.3136 170.718 14.1808 170.6 13.915C170.482 13.6493 170.408 13.3319 170.379 12.9628C170.364 12.5789 170.386 12.2172 170.445 11.8776C170.519 11.5381 170.63 11.2871 170.777 11.1247C170.511 11.169 170.238 11.073 169.958 10.8368C169.677 10.5858 169.493 10.3127 169.404 10.0174C169.183 10.2241 168.924 10.3053 168.629 10.261C168.703 10.4234 168.673 10.5784 168.54 10.7261C168.408 10.8737 168.208 10.918 167.943 10.8589C168.134 10.9623 168.275 11.1764 168.363 11.5012C168.452 11.8112 168.481 12.1508 168.452 12.5198C168.437 12.8889 168.363 13.2137 168.23 13.4943C168.112 13.76 167.943 13.8929 167.721 13.8929C167.928 13.8929 168.083 13.9962 168.186 14.2029C168.289 14.3948 168.341 14.6237 168.341 14.8894C168.341 15.1552 168.289 15.3914 168.186 15.5981C168.083 15.8048 167.928 15.9081 167.721 15.9081C167.987 15.8933 168.164 15.9893 168.253 16.196C168.341 16.3879 168.349 16.5872 168.275 16.7939C168.201 17.0006 168.031 17.1113 167.765 17.1261C167.751 17.4066 167.596 17.6059 167.3 17.724C167.005 17.8569 166.665 17.9086 166.282 17.8791C165.898 17.8643 165.558 17.7831 165.263 17.6355C164.982 17.4878 164.85 17.2737 164.864 16.9932C164.864 17.3033 164.783 17.5321 164.621 17.6797C164.473 17.8421 164.296 17.9233 164.089 17.9233C163.897 17.9381 163.72 17.8791 163.558 17.7462C163.395 17.6133 163.299 17.4066 163.27 17.1261Z" fill="white"/>
</svg>
