<svg width="39" height="36" viewBox="0 0 39 36" fill="none" xmlns="http://www.w3.org/2000/svg">
<path d="M13.3973 24.1781C13.8766 24.7653 14.5115 25.197 14.9993 25.7758C15.1689 25.9776 15.3335 26.183 15.4667 26.4114C15.4457 26.4983 15.4295 26.5102 15.3391 26.4717C15.2088 26.4163 15.0792 26.3574 14.9509 26.2979C13.9425 25.8326 12.8893 25.5263 11.7856 25.3939C11.3861 25.3462 10.9853 25.307 10.5844 25.3168C9.77086 25.3371 8.96498 25.4261 8.16891 25.6125C6.94327 25.8998 5.79401 26.3785 4.6882 26.9678C3.65948 27.5165 2.69453 28.1661 1.76601 28.8697C1.69103 28.9265 1.61675 29.0295 1.50743 28.9762C1.39671 28.9223 1.43595 28.8003 1.43595 28.7064C1.43315 25.5985 1.43385 22.4906 1.43385 19.3827C1.43385 14.2882 1.43385 9.1929 1.43455 4.09833C1.43455 3.64284 1.3897 3.72973 1.76041 3.44662C1.87673 3.35762 2.00007 3.27704 2.11079 3.18103C2.23973 3.06961 2.40231 3.03107 2.55017 2.95959C4.15282 1.83696 5.85147 0.90915 7.75265 0.392686C9.83112 -0.17143 11.8935 -0.139195 13.9383 0.563673C15.5101 1.10396 16.9046 1.95329 18.1969 2.98412C18.5038 3.07592 18.6986 3.32609 18.9376 3.51319C18.9712 3.53912 18.9971 3.57486 19.0336 3.59729C19.138 3.66176 19.1681 3.75706 19.1681 3.87479C19.1681 4.27703 19.1681 4.67857 19.1681 5.08081C19.1681 5.42138 19.1695 5.76195 19.1681 6.10252C19.1681 6.17751 19.1751 6.25389 19.1443 6.32607C19.0924 6.39404 19.0168 6.39825 18.9404 6.40245C17.7175 6.46342 16.5529 6.75704 15.4337 7.25178C14.5746 7.63159 13.7911 8.12984 13.0764 8.7332C12.2235 9.45218 11.5214 10.3022 10.9537 11.2637C10.2936 12.3814 9.88368 13.5867 9.69167 14.8677C9.59426 15.5194 9.57114 16.1774 9.60688 16.8333C9.65313 17.6806 9.808 18.511 10.068 19.3211C10.4457 20.5005 11.0203 21.5733 11.7975 22.5362C12.0855 22.8929 12.3952 23.2313 12.7176 23.5565C12.7617 23.6006 12.8101 23.6371 12.8675 23.6616C12.9131 23.6826 12.9285 23.7345 12.9713 23.759C12.9951 23.78 13.0175 23.8032 13.042 23.8235C13.0645 23.8445 13.0813 23.8718 13.1044 23.8929C13.1275 23.9307 13.1598 23.9587 13.1969 23.9819C13.2565 24.0554 13.3286 24.1164 13.398 24.1788L13.3973 24.1781Z" fill="#06C270"/>
<path d="M20.8298 2.95692C22.2881 1.79855 23.8725 0.873542 25.6791 0.369692C27.0365 -0.00872151 28.4149 -0.0928134 29.8122 0.0998971C31.3252 0.308024 32.7365 0.823087 34.0862 1.51825C34.9194 1.94782 35.719 2.43555 36.4793 2.98495C36.7869 3.05643 36.9866 3.3045 37.2473 3.45026C37.522 3.60372 37.5704 3.82867 37.5704 4.12299C37.5634 12.2701 37.5648 20.4172 37.5648 28.5643C37.5648 28.668 37.5725 28.7731 37.5564 28.8761C37.5396 28.9847 37.4709 29.0177 37.3728 28.9679C37.3006 28.9315 37.2396 28.8782 37.1759 28.8292C36.2123 28.1004 35.2102 27.4333 34.1359 26.8754C33.3749 26.4795 32.595 26.1284 31.7772 25.8698C30.9769 25.6169 30.1626 25.434 29.3231 25.3632C28.9979 25.3359 28.6735 25.3071 28.3469 25.312C27.0904 25.3303 25.8767 25.5629 24.7029 26.0128C24.3757 26.1382 24.0582 26.2854 23.7373 26.4249C23.7029 26.4396 23.6686 26.4606 23.6301 26.4599C23.581 26.4592 23.5277 26.4557 23.5572 26.38C23.8438 25.9574 24.1703 25.5692 24.5425 25.2188C24.8038 24.9736 25.0638 24.7269 25.3245 24.4809C25.4254 24.3982 25.5277 24.3162 25.6006 24.2055C25.6742 24.1256 25.7618 24.0577 25.8228 23.9666C25.8655 23.9266 25.9216 23.9007 25.9496 23.8453C26.0365 23.783 26.1143 23.7101 26.1963 23.6407C26.4044 23.4879 26.5614 23.2833 26.7309 23.0948C27.0785 22.7087 27.4135 22.3128 27.7029 21.8783C28.4773 20.7164 28.9902 19.4508 29.2439 18.0808C29.3812 17.3401 29.4359 16.5889 29.3932 15.837C29.3301 14.7459 29.1093 13.6863 28.7099 12.6639C28.3308 11.6948 27.8171 10.8083 27.164 10.0024C26.4429 9.11244 25.5824 8.38014 24.602 7.7894C23.4528 7.09704 22.2117 6.66116 20.8859 6.46915C20.6483 6.43482 20.4079 6.40819 20.1669 6.40188C20.0583 6.39908 19.9496 6.38716 19.8606 6.31218C19.8235 6.24631 19.8319 6.17413 19.8319 6.10406C19.8298 5.37596 19.8326 4.64857 19.8291 3.92047C19.8284 3.7656 19.8733 3.65348 20.0015 3.55817C20.1143 3.47478 20.2222 3.38088 20.3224 3.27997C20.4675 3.13491 20.6441 3.03821 20.8298 2.95552V2.95692Z" fill="#06C270"/>
<path d="M23.5578 26.3801C23.6118 26.4642 23.6601 26.3871 23.6994 26.3682C24.4618 26.0052 25.248 25.7116 26.0721 25.5189C26.9902 25.3038 27.9201 25.207 28.8598 25.2554C30.2718 25.3283 31.6236 25.6689 32.9242 26.2218C34.5066 26.8952 35.9487 27.8006 37.3096 28.8426C37.3601 28.8812 37.414 28.9639 37.4715 28.9372C37.5423 28.905 37.503 28.8097 37.503 28.7431C37.5044 20.4783 37.5037 12.2135 37.5079 3.94793C37.5079 3.78675 37.4589 3.68794 37.3271 3.59825C37.0391 3.40203 36.7609 3.1897 36.4792 2.98438C37.0896 2.98788 37.6993 2.99138 38.3096 2.99489C38.5142 2.99629 38.5149 2.99489 38.5149 3.1946C38.5149 12.0649 38.5149 20.9352 38.5149 29.8055C38.5149 29.9395 38.4474 30.0066 38.3124 30.0066C33.1085 30.0066 27.9047 30.0066 22.7001 30.0066C22.501 30.0066 22.5017 30.0066 22.5032 29.8027C22.5095 28.6471 22.8367 27.584 23.4261 26.5967C23.4695 26.5245 23.5137 26.4523 23.5578 26.3808V26.3801Z" fill="#05A660"/>
<path d="M2.54981 2.96164C2.24567 3.18378 1.94364 3.40943 1.63601 3.62666C1.533 3.69954 1.49165 3.78083 1.49165 3.90907C1.49445 12.2019 1.49445 20.4948 1.49515 28.7876C1.49515 28.8409 1.46572 28.9152 1.52669 28.9418C1.57644 28.9635 1.61639 28.9005 1.65563 28.8703C2.84203 27.9621 4.09079 27.1542 5.44327 26.5116C6.74319 25.8935 8.09847 25.4625 9.53504 25.3119C11.2029 25.1374 12.8167 25.3714 14.3787 25.9783C14.7053 26.1051 15.0199 26.2579 15.3388 26.4008C15.3759 26.4177 15.4187 26.4849 15.467 26.4128C15.556 26.4695 15.5784 26.5725 15.6268 26.6552C16.2056 27.6454 16.4866 28.7176 16.4978 29.8633C16.4992 29.9754 16.4635 30.0224 16.3521 30.0077C16.329 30.0049 16.3051 30.0077 16.2813 30.0077C11.0865 30.0077 5.89106 30.0077 0.696282 30.0077C0.555662 30.0086 0.485352 29.9404 0.485352 29.8031C0.485352 20.937 0.485352 12.0709 0.485352 3.2041C0.485352 3.06675 0.555662 2.99784 0.696282 2.99738C1.23097 2.99738 1.76565 2.99738 2.30033 2.99738C2.38583 2.99738 2.46992 2.99387 2.55051 2.96094L2.54981 2.96164Z" fill="#05A660"/>
<path d="M25.9751 23.8869C25.9345 23.9227 25.8938 23.9584 25.8532 23.9948C25.739 23.9983 25.8315 23.9367 25.8252 23.9065L25.8237 23.9086C25.8602 23.8736 25.8952 23.8372 25.9134 23.7888C26.2799 23.2478 26.6219 22.6935 26.8728 22.0866C27.3626 20.8982 27.5609 19.6641 27.46 18.3824C27.3332 16.772 26.7817 15.3236 25.7845 14.0552C24.5995 12.5464 23.0508 11.606 21.1847 11.1806C20.7866 11.0902 20.3823 11.0475 19.9766 11.0216C19.952 11.0054 19.917 11.0104 19.8988 10.9816C19.8764 10.9368 19.8834 10.8891 19.8834 10.8422C19.8834 10.2416 19.8827 9.64106 19.8834 9.0405C19.8834 8.86671 19.9002 8.85129 20.0684 8.8562C20.9177 8.88143 21.7341 9.07063 22.5309 9.35304C23.1798 9.58289 23.7922 9.88843 24.3683 10.264C25.0529 10.7104 25.664 11.2416 26.2064 11.8541C26.788 12.5107 27.2547 13.2402 27.6226 14.0335C27.9744 14.7931 28.2113 15.5878 28.3353 16.4161C28.3864 16.7573 28.4089 17.1 28.4278 17.4448C28.4895 18.5597 28.3185 19.6403 27.9618 20.6914C27.652 21.6059 27.2029 22.451 26.6114 23.217C26.5596 23.2843 26.493 23.3396 26.4467 23.4111C26.2799 23.5604 26.1454 23.7419 25.9744 23.8869H25.9751Z" fill="#86FFC3"/>
<path d="M12.9426 23.7961C12.9019 23.7814 12.8774 23.7491 12.8536 23.7155C12.5635 23.4114 12.2775 23.1044 12.0463 22.7506C11.2888 21.5922 10.8073 20.3315 10.6321 18.9566C10.5747 18.506 10.5347 18.0547 10.5495 17.5999C10.5845 16.4794 10.7933 15.3946 11.2285 14.3575C11.6062 13.457 12.108 12.6329 12.7527 11.8978C13.4674 11.0828 14.2986 10.4171 15.2551 9.90202C16.1815 9.40307 17.164 9.08282 18.2011 8.92585C18.4478 8.88871 18.6966 8.85437 18.9481 8.85998C19.0532 8.86208 19.1177 8.89852 19.117 9.01835C19.1156 9.64764 19.117 10.2769 19.1156 10.9055C19.1156 10.9342 19.1142 10.9623 19.0967 10.9868C19.0701 11.0204 19.0238 10.9973 18.9944 11.0232C15.3112 11.2433 12.246 13.9728 11.6258 17.6146C11.267 19.7204 11.6896 21.6749 12.8613 23.4646C12.8816 23.4955 12.8984 23.5298 12.9166 23.562C12.9545 23.6377 13.007 23.7043 13.0582 23.7709C13.0771 23.7961 13.0967 23.822 13.1157 23.8472C13.1304 23.8837 13.1339 23.9138 13.0806 23.9152C13.0617 23.8984 13.0421 23.8816 13.0232 23.8648C13.0049 23.8325 12.9727 23.8157 12.9433 23.7947L12.9426 23.7961Z" fill="#86FFC3"/>
<path d="M18.9947 11.0228C19.0256 11.0109 19.0557 10.9983 19.0865 10.9864C19.0907 10.3249 19.1328 9.65915 19.0767 9.00254C19.0081 8.19525 19.0641 7.39077 19.0368 6.5863C19.034 6.5001 19.0165 6.4034 19.0977 6.33472C19.0985 5.50431 19.0992 4.67321 19.102 3.8428C19.102 3.76361 19.0697 3.71246 19.0109 3.6641C18.7383 3.43986 18.4685 3.21211 18.1973 2.98506C18.561 3.00959 18.9254 2.99277 19.2898 2.99557C19.7298 2.99908 20.1699 2.99557 20.61 2.99697C20.6871 2.99697 20.76 2.98857 20.8307 2.95703C20.5567 3.18688 20.2827 3.41673 20.0073 3.64518C19.9471 3.69494 19.8973 3.74259 19.898 3.83089C19.9015 4.65849 19.9029 5.48609 19.905 6.313C19.9499 6.35504 19.9618 6.409 19.9618 6.46717C19.9667 7.2268 20.008 7.98923 19.9499 8.74535C19.8938 9.48046 19.9401 10.2128 19.912 10.9451C19.912 10.9598 19.9162 10.9731 19.9197 10.9864C19.9387 10.9976 19.9583 11.0088 19.9772 11.02C19.65 10.9969 19.3227 10.9885 18.9954 11.0221L18.9947 11.0228Z" fill="#05A660"/>
<path d="M19.4997 31.0017C20.3091 31.0017 21.1177 31.0024 21.9271 31.001C22.0434 31.001 22.1535 31.0136 22.2544 31.0753C22.4275 31.1818 22.5144 31.3402 22.4947 31.5399C22.4758 31.7375 22.3721 31.8854 22.1787 31.9569C22.0981 31.987 22.014 31.9982 21.9278 31.9982C20.3048 31.9982 18.6819 31.9982 17.0589 31.9982C16.8585 31.9982 16.6833 31.94 16.5726 31.7607C16.3707 31.4334 16.5873 31.022 16.9727 31.0052C17.1948 30.9954 17.4177 31.0024 17.6398 31.0024C18.2593 31.0024 18.8795 31.0024 19.499 31.0024L19.4997 31.0017Z" fill="#05A660"/>
<path d="M19.5136 33.0014C20.3223 33.0014 21.1317 33.0028 21.9404 33.0007C22.1457 33.0007 22.3118 33.0729 22.4232 33.2452C22.6075 33.5305 22.4344 33.9173 22.0953 33.9845C22.049 33.9937 22.0014 33.9965 21.9544 33.9965C20.3174 33.9965 18.6811 33.9965 17.0441 33.9972C16.8101 33.9972 16.6279 33.911 16.5354 33.6853C16.4001 33.3553 16.6335 33.0091 17.0014 33.0035C17.4317 32.9972 17.8626 33.0014 18.2929 33.0014C18.7001 33.0014 19.1065 33.0014 19.5136 33.0014Z" fill="#05A660"/>
<path d="M19.4986 35.0053C20.0045 35.0053 20.5105 35.0018 21.0157 35.0067C21.2288 35.0088 21.404 35.1413 21.4719 35.3319C21.5406 35.5239 21.4846 35.7327 21.3269 35.8729C21.2218 35.9661 21.0928 35.999 20.959 35.999C19.9849 36.0018 19.0116 36.0032 18.0375 35.999C17.7775 35.9976 17.6079 35.8722 17.5329 35.6584C17.4643 35.4629 17.5217 35.2534 17.6815 35.1195C17.7887 35.0298 17.9149 35.0032 18.0515 35.0039C18.5336 35.0053 19.0158 35.0039 19.4979 35.0039V35.0053H19.4986Z" fill="#05A660"/>
<path d="M25.8255 23.9062C25.8381 23.9343 25.8002 23.9791 25.8535 23.9945C25.8058 24.0976 25.6965 24.1417 25.6278 24.2244C25.5844 24.2202 25.583 24.1978 25.6019 24.1662C25.6762 24.0793 25.7512 23.9931 25.8255 23.9062Z" fill="#80CBE7"/>
<path d="M25.6028 24.168C25.6112 24.1876 25.6203 24.2065 25.6287 24.2261C25.546 24.3326 25.4633 24.4392 25.3267 24.4833C25.4185 24.3782 25.511 24.2731 25.6028 24.168Z" fill="#5AB3D6"/>
<path d="M13.3981 24.1808C13.3042 24.1443 13.2342 24.0778 13.169 24.0042C13.1683 23.9796 13.1767 23.9593 13.1977 23.9453C13.2839 24.007 13.3421 24.0939 13.3981 24.1808Z" fill="#74BDD9"/>
<path d="M13.0581 23.7713C12.9817 23.7216 12.9312 23.6536 12.9165 23.5625C12.9775 23.6228 13.0356 23.6851 13.0581 23.7713Z" fill="#39D98A"/>
<path d="M13.1964 23.943C13.1866 23.9626 13.1775 23.9822 13.1677 24.0018C13.1284 23.9829 13.1018 23.9514 13.0801 23.9156C13.092 23.8932 13.1032 23.8701 13.1151 23.8477C13.1424 23.8792 13.1698 23.9114 13.1964 23.943Z" fill="#39D98A"/>
<path d="M25.9139 23.7891C25.9118 23.85 25.881 23.8893 25.8242 23.9089C25.8389 23.8577 25.8698 23.8178 25.9139 23.7891Z" fill="#80CBE7"/>
<path d="M19.098 6.33594C19.1008 6.38779 19.105 6.43965 19.105 6.49151C19.1057 7.93999 19.1064 9.38917 19.1057 10.8377C19.1057 10.8881 19.1218 10.9421 19.0861 10.9883C19.0833 10.4214 19.0804 9.85378 19.0776 9.28686C19.0776 9.25883 19.0776 9.2301 19.0776 9.20207C19.0776 9.00118 18.9786 8.90962 18.7805 8.92737C18.0671 8.99044 17.3678 9.12779 16.6887 9.35694C15.5507 9.74026 14.529 10.3247 13.6243 11.118C12.7406 11.8923 12.0483 12.8103 11.5283 13.8594C11.056 14.8131 10.7729 15.8222 10.6657 16.8832C10.5115 18.4115 10.7413 19.8789 11.3363 21.291C11.6951 22.1424 12.1807 22.9167 12.7918 23.6105C12.8198 23.642 12.8534 23.6701 12.8541 23.7177C12.5682 23.511 12.3349 23.2489 12.0994 22.9924C11.6159 22.4648 11.1961 21.8873 10.843 21.2636C10.2333 20.1866 9.83105 19.038 9.64184 17.8138C9.54233 17.1712 9.50869 16.5251 9.53392 15.8776C9.57386 14.8551 9.76868 13.8622 10.1135 12.8972C10.4505 11.954 10.9256 11.085 11.5255 10.2869C12.5185 8.96591 13.7679 7.9526 15.2662 7.25394C16.2318 6.80335 17.2444 6.50762 18.3075 6.3906C18.571 6.36187 18.8324 6.33454 19.0973 6.33664L19.098 6.33594Z" fill="#57EBA1"/>
<path d="M12.9429 23.7947C12.9996 23.7835 13.008 23.8277 13.0228 23.8648C12.9891 23.8501 12.9611 23.8277 12.9429 23.7947Z" fill="#39D98A"/>
<path d="M19.9194 10.9866C19.8815 10.953 19.8948 10.9074 19.8948 10.8668C19.8948 9.38606 19.8948 7.90604 19.8948 6.42532C19.8948 6.38748 19.9012 6.35034 19.9047 6.3125C21.1387 6.37207 22.3272 6.62855 23.4624 7.12539C24.3083 7.49539 25.0924 7.96771 25.8065 8.55145C26.6026 9.20176 27.2858 9.95788 27.845 10.8219C28.4729 11.7918 28.92 12.8394 29.1891 13.9628C29.3194 14.5051 29.3972 15.0552 29.4393 15.6131C29.5395 16.9417 29.3706 18.236 28.9508 19.4953C28.55 20.6964 27.9466 21.7868 27.1225 22.7532C26.8703 23.0489 26.6019 23.3278 26.3251 23.599C26.2879 23.6354 26.2543 23.6761 26.2003 23.6901C26.1849 23.6088 26.2669 23.5871 26.2991 23.5345C26.3279 23.4876 26.3734 23.4511 26.3973 23.3993C26.6446 23.0594 26.899 22.7244 27.112 22.3607C27.3195 22.0054 27.5003 21.6389 27.6649 21.2605C27.9102 20.6971 28.0861 20.1169 28.2066 19.5177C28.2949 19.0776 28.3412 18.6327 28.3636 18.1828C28.4092 17.2683 28.3075 16.3706 28.0728 15.489C27.7175 14.1513 27.0854 12.9586 26.1716 11.9151C25.2284 10.838 24.0875 10.0399 22.7624 9.50939C22.0217 9.21297 21.2522 9.02166 20.4555 8.94528C20.3237 8.93266 20.1913 8.92986 20.0602 8.91514C19.9502 8.90253 19.9222 8.93617 19.9229 9.04268C19.9271 9.63413 19.925 10.2256 19.925 10.8163C19.925 10.8731 19.9215 10.9298 19.9194 10.9859V10.9866Z" fill="#57EBA1"/>
<path d="M26.3972 23.3984C26.3972 23.54 26.2465 23.5792 26.2003 23.6893C26.133 23.7642 26.0713 23.8455 25.9746 23.8869C26.1169 23.725 26.2332 23.5421 26.3972 23.3991V23.3984Z" fill="#70CFF4"/>
<path d="M22.5112 21.9802C22.6029 22.0719 22.6866 22.1396 22.7623 22.1834C22.838 22.2233 22.8977 22.2452 22.9416 22.2492C22.9854 22.2532 23.0471 22.2552 23.1268 22.2552C23.2105 22.2552 23.3241 22.2173 23.4675 22.1416L23.6587 22.5719C23.3918 22.9026 23.0631 23.1357 22.6726 23.2712C22.5093 23.327 22.3778 23.3548 22.2782 23.3548C21.8996 23.3548 21.5809 23.2592 21.3219 23.068C21.0629 22.8767 20.8398 22.6556 20.6525 22.4046C20.4653 22.1536 20.288 21.8667 20.1206 21.5439C19.8098 20.9543 19.5708 20.3546 19.4034 19.745C19.0448 19.7928 18.6524 19.8167 18.2261 19.8167V21.1316C18.2261 21.4543 18.25 21.9703 18.2978 22.6795L18.3217 23.0381C17.983 23.1417 17.5786 23.1935 17.1084 23.1935C16.6423 23.1935 16.3454 23.1417 16.2179 23.0381C16.3335 22.1974 16.3912 21.5559 16.3912 21.1136V16.3204C16.3912 15.9658 16.3594 15.7387 16.2956 15.6391C16.2319 15.5395 16.19 15.4757 16.1701 15.4479C16.1502 15.416 16.1143 15.3861 16.0625 15.3582C16.0147 15.3263 15.9809 15.3044 15.9609 15.2925C15.9171 15.2725 15.8474 15.2466 15.7518 15.2148C15.692 15.0594 15.6621 14.906 15.6621 14.7546C15.6621 14.5992 15.6641 14.5036 15.6681 14.4677C16.7359 14.3043 17.9153 14.2227 19.2062 14.2227H19.5469C20.3955 14.2386 21.1207 14.4478 21.7223 14.8502C22.0172 15.0494 22.2523 15.3084 22.4276 15.6271C22.6029 15.9459 22.6905 16.3065 22.6905 16.7089C22.6905 17.3783 22.5292 17.95 22.2064 18.4242C21.8877 18.8943 21.3598 19.2489 20.6227 19.488C20.9334 19.9064 21.1944 20.265 21.4056 20.5638C21.6168 20.8626 21.7881 21.0997 21.9196 21.275C22.0511 21.4503 22.1586 21.5878 22.2423 21.6874C22.33 21.787 22.4196 21.8846 22.5112 21.9802ZM20.9215 16.7209C20.9215 15.669 20.2959 15.143 19.0448 15.143C18.8098 15.143 18.5368 15.159 18.2261 15.1909V18.8904C19.6365 18.8306 20.4792 18.4561 20.7541 17.7668C20.8657 17.4759 20.9215 17.1273 20.9215 16.7209Z" fill="url(#paint0_linear_356_4752)"/>
<defs>
<linearGradient id="paint0_linear_356_4752" x1="15.6621" y1="14.2227" x2="25.3141" y2="16.5816" gradientUnits="userSpaceOnUse">
<stop stop-color="#06B6D4"/>
<stop offset="1" stop-color="#4ADE80"/>
</linearGradient>
</defs>
</svg>
