<svg width="56" height="54" viewBox="0 0 56 54" fill="none" xmlns="http://www.w3.org/2000/svg">
<path d="M41.9734 47.2517L35.7587 36.6681C35.7587 32.8052 33.323 30.3268 30.3636 30.3268C28.3148 30.3268 26.5392 31.4432 25.6286 33.0955C26.3798 32.6713 27.2676 32.448 28.201 32.448C31.1603 32.448 33.5734 34.8148 33.5734 37.7175C33.5734 40.6425 31.1831 43.0317 28.201 43.0317H35.7132V47.2517H16.3407C15.7944 47.2517 15.2253 47.0508 14.8155 46.6265C14.4124 46.2291 14.1861 45.6912 14.1861 45.1305C14.1861 44.5699 14.4124 44.032 14.8155 43.6345L15.9537 42.5181C15.1798 42.1832 14.5424 41.6696 13.9049 41.1337C13.4041 42.2502 12.2659 43.0317 10.9456 43.0317C10.0852 43.0317 9.26014 42.6964 8.65178 42.0997C8.04343 41.503 7.70166 40.6937 7.70166 39.8499C7.70166 39.006 8.04343 38.1967 8.65178 37.6C9.26014 37.0033 10.0852 36.6681 10.9456 36.6681L12.0155 36.8467V32.448C12.0125 31.0573 12.2896 29.6797 12.8308 28.3943C13.372 27.1089 14.1667 25.941 15.1692 24.9576C16.1718 23.9743 17.3625 23.1948 18.673 22.6639C19.9835 22.1331 21.388 21.8614 22.8058 21.8643H22.8513C27.6774 21.8866 31.4335 23.7399 31.4335 20.8149C31.4335 18.7383 31.8888 17.9122 32.6628 16.7511C31.001 15.9919 29.1115 15.523 27.131 15.523C25.9245 15.523 24.9684 14.5852 24.9684 13.4018C24.9684 12.4417 25.6058 11.6379 26.4936 11.3699L24.9684 11.2806C23.7847 11.2806 22.8058 10.3428 22.8058 9.18175C22.8058 7.99834 23.7847 7.06055 24.9684 7.06055H27.131C31.9116 7.06055 36.1002 9.62832 38.3539 13.4242L38.9913 13.4018C40.6075 13.4018 42.11 13.9154 43.3393 14.7639L44.3637 15.6123C49.3035 19.9664 48.6889 22.9137 48.6889 22.9361C48.6889 25.7941 46.2759 28.1386 43.3393 28.1386L42.2238 28.027V28.2056C42.2238 30.684 41.1311 32.8946 39.4238 34.4575L46.9588 47.2517H41.9734ZM42.2238 17.6442C41.0173 17.6442 40.0612 18.582 40.0612 19.7431C40.0612 20.9265 41.0173 21.8643 42.2238 21.8643C43.4076 21.8643 44.3864 20.9265 44.3864 19.7431C44.3864 18.582 43.4076 17.6442 42.2238 17.6442Z" fill="white"/>
</svg>
