<svg viewBox="0 0 24 24" fill="#293749" xmlns="http://www.w3.org/2000/svg"><path fill-rule="evenodd" color="#293749" clip-rule="evenodd" d="M18.427 21H5.582c-.86 0-1.508-.206-1.941-.617-.427-.41-.641-1.021-.641-1.832V9.928c0-.817.214-1.428.641-1.833.433-.41 1.08-.616 1.94-.616h12.846c.849 0 1.49.205 1.923.616.433.405.65 1.016.65 1.833v8.623c0 .81-.217 1.421-.65 1.832-.433.412-1.074.617-1.923.617Zm.713-14.866H4.878c.054-.337.172-.594.356-.77.184-.183.466-.275.846-.275H17.93c.38 0 .662.092.846.274.184.177.305.434.365.771ZM17.5 3.96H6.65c.03-.308.136-.545.32-.71.184-.166.454-.249.81-.249h8.6c.35 0 .617.083.801.248.19.166.297.403.32.711ZM6.973 12.432H17.02a.55.55 0 0 0 .388-.148.476.476 0 0 0 .16-.363.438.438 0 0 0-.16-.343.57.57 0 0 0-.388-.14H6.973a.584.584 0 0 0-.398.14.451.451 0 0 0-.15.344c0 .142.05.263.15.362.106.099.239.148.398.148Zm10.046 2.665H6.973a.584.584 0 0 1-.398-.139.462.462 0 0 1-.15-.353.48.48 0 0 1 .15-.353.562.562 0 0 1 .398-.148H17.02a.55.55 0 0 1 .388.148c.107.1.16.217.16.353 0 .143-.053.26-.16.353a.57.57 0 0 1-.388.14Zm-3.608 2.675H6.973a.584.584 0 0 1-.398-.14.48.48 0 0 1-.15-.353c0-.142.05-.263.15-.362a.562.562 0 0 1 .398-.148h6.438c.153 0 .28.05.379.148.106.1.16.22.16.362a.466.466 0 0 1-.16.353.534.534 0 0 1-.379.14Z" fill="currentColor"></path></svg>