<svg viewBox="0 0 24 24" fill="none" xmlns="http://www.w3.org/2000/svg"><path clip-rule="evenodd" color="#293749" d="m20.155 7.354.006-.01a1.559 1.559 0 0 0-.244-1.957l-1.303-1.285c-.469-.462-1.182-.648-1.846-.477-1.368.351-2.717.728-4.065 1.13-2.515.748-5.435 2.42-7.389 4.037-.41.338-1.974 1.154-1.677 1.793.148.318.975.5 1.322.473 1.32-.107 2.216-1.727 3.516-1.643.027.343-1.567 1.308-1.875 1.643-.527.572-1.392 1.382-1.9 1.965-.657.754.2.847.892.893.653.043.93-.475 1.388-.802.64-.455 1.204-1.012 1.853-1.476.31-.222.706-.563 1.081-.648-.226.706-.715 1.335-.914 2.078-.112.417-.087.562.21.94.593.752 1.306 1.548 2.1 2.1.21.147.676.51.972.354.256-.137.311-.793.235-1.036-.158-.502-.68-1.05-.961-1.512-.245-.403-.358-.562-.142-.972.753-1.427 2.154-3.115 4.05-1.77.35.247.116 1.42.011 1.77-.28.938-.593.848-.849 1.79-.153.564.076 1.246.849 1.121 1.066-.173 1.86-1.827 2.239-2.595.94-1.908 1.329-4.094 2.44-5.904Z" stroke="currentColor" stroke-width="1.2" stroke-linejoin="round"></path><path clip-rule="evenodd" color="#293749" d="M11.998 18.631c-.116-.553-.752-.591-.957-.101-.112.269-.108.617-.137.909-.033.324-.065.593.065.9.193.456.752.515 1.012.101.284-.452.129-1.307.017-1.809Z" stroke="currentColor" stroke-width=".714" stroke-linejoin="round"></path></svg>