<svg viewBox="0 0 18 18" fill="none" xmlns="http://www.w3.org/2000/svg">
    <path d="M.93 10.87c.18 0 .33-.06.45-.19a.6.6 0 0 0 .18-.44V7.76a.6.6 0 0 0-.18-.44.58.58 0 0 0-.45-.19.62.62 0 0 0-.63.63v2.48c0 .17.06.32.18.44.12.13.27.19.45.19Zm2.83 3.53a.62.62 0 0 0 .63-.63V4.23a.58.58 0 0 0-.18-.45.58.58 0 0 0-.45-.18.63.63 0 0 0-.46.18.6.6 0 0 0-.18.45v9.54c0 .18.06.33.18.46.12.12.28.17.46.17ZM6.58 18a.6.6 0 0 0 .46-.19.62.62 0 0 0 .17-.44V.63a.62.62 0 0 0-.17-.44.6.6 0 0 0-.46-.19.62.62 0 0 0-.63.63v16.74c0 .17.06.32.18.44.12.13.28.19.45.19Zm2.84-4.62a.62.62 0 0 0 .63-.63v-7.5a.58.58 0 0 0-.19-.45.58.58 0 0 0-.44-.18.62.62 0 0 0-.63.63v7.5c0 .18.05.33.17.46.13.11.28.17.46.17Zm2.82 2.55a.6.6 0 0 0 .45-.18.62.62 0 0 0 .18-.45V2.7a.62.62 0 0 0-.18-.45.6.6 0 0 0-.45-.18.6.6 0 0 0-.45.18.62.62 0 0 0-.17.45v12.6c0 .18.06.32.17.45a.6.6 0 0 0 .45.18Zm2.83-4.25c.18 0 .32-.07.44-.19a.62.62 0 0 0 .19-.45V6.95a.6.6 0 0 0-.19-.44.58.58 0 0 0-.44-.19.58.58 0 0 0-.45.19.62.62 0 0 0-.17.44v4.09c0 .17.06.33.17.45.12.12.27.19.45.19Z" fill="currentcolor"></path>
</svg>