<svg viewBox="0 0 18 18" fill="none" xmlns="http://www.w3.org/2000/svg">
    <path d="M5.47 11.68c-.16-.34-.37-.55-.65-.63a1.05 1.05 0 0 0-.76.02c-.25.1-.44.3-.57.6-.12.29-.09.62.1 1.01l1.96 3.97c.18.36.4.6.7.71.3.12.6.1.9-.06a.9.9 0 0 0 .5-.6c.07-.27.03-.55-.11-.86l-2.07-4.16Zm7.05 0-2.06 4.16c-.14.3-.18.6-.11.86a.9.9 0 0 0 .5.6c.3.16.6.18.9.06.29-.11.52-.35.7-.7l1.96-3.98c.19-.39.22-.72.1-1.01a1.05 1.05 0 0 0-1.34-.62c-.27.08-.48.3-.65.63ZM.5 8.55c0 .73.09 1.46.26 2.2.18.74.44 1.47.78 2.18-.11.16-.17.36-.18.6 0 .24.05.49.17.74l1.55 3.15c.1.19.24.33.41.43a1.11 1.11 0 0 0 1.26-.1c.22-.17.34-.4.35-.7l-1.8-3.67a9.66 9.66 0 0 1-.92-3c-.08-.56-.12-1.17-.12-1.82 0-.99.16-1.89.48-2.7a5.97 5.97 0 0 1 3.5-3.45A7.63 7.63 0 0 1 9 1.94c1 0 1.92.15 2.74.47a6.1 6.1 0 0 1 3.51 3.45c.33.81.49 1.71.49 2.7 0 .65-.04 1.26-.13 1.82a9.33 9.33 0 0 1-.9 3l-1.82 3.67c.02.3.13.53.35.7a1.12 1.12 0 0 0 1.26.1c.18-.1.32-.24.4-.43l1.56-3.15c.12-.25.18-.5.18-.74s-.07-.44-.18-.6a10.93 10.93 0 0 0 1.04-4.38c0-1.21-.2-2.33-.61-3.37A7.87 7.87 0 0 0 12.47.65 8.88 8.88 0 0 0 9 0C7.73 0 6.57.22 5.53.65A7.89 7.89 0 0 0 1.1 5.18a9.19 9.19 0 0 0-.6 3.37Z" fill="currentcolor"></path>
</svg>